# https://github.com/mikedh/trimesh
mtllib MountainArenaLowPoly.mtl
usemtl material_0
v 20.47119911 -1.40108601 1.77110845
v 20.47119911 -1.40108601 1.77110845
v 20.47119911 -1.40108601 1.77110845
v 12.76300042 -1.41212321 -16.10430483
v 12.76300042 -1.41212321 -16.10430483
v 12.76300042 -1.41212321 -16.10430483
v 12.76300042 -1.41212321 -16.10430483
v -20.31229755 -1.42143176 3.45834312
v -20.31229755 -1.42143176 3.45834312
v -20.31229755 -1.42143176 3.45834312
v -20.31229755 -1.42143176 3.45834312
v -20.31229755 -1.42143176 3.45834312
v 12.96314942 -1.20092739 0.23329856
v 12.96314942 -1.20092739 0.23329856
v 19.47801985 -1.27515731 -6.83834324
v 19.47801985 -1.27515731 -6.83834324
v 8.39882576 -1.27620772 -9.63952926
v 8.39882576 -1.27620772 -9.63952926
v 4.23194263 -1.41556399 -20.07416862
v 4.23194263 -1.41556399 -20.07416862
v 4.23194263 -1.41556399 -20.07416862
v -0.24150595 -1.41780343 -20.55207226
v -0.24150595 -1.41780343 -20.55207226
v -0.24150595 -1.41780343 -20.55207226
v 1.63995592 2.39819668 -15.98902464
v 1.63995592 2.39819668 -15.98902464
v 1.63995592 2.39819668 -15.98902464
v 1.63995592 2.39819668 -15.98902464
v 1.63995592 2.39819668 -15.98902464
v 1.28699385 -0.76034932 -11.90705909
v 1.28699385 -0.76034932 -11.90705909
v -15.94475995 2.51162981 1.10495759
v -15.94475995 2.51162981 1.10495759
v -15.94475995 2.51162981 1.10495759
v -15.94475995 2.51162981 1.10495759
v -15.94475995 2.51162981 1.10495759
v -15.94475995 2.51162981 1.10495759
v -15.70619554 2.27168509 12.83476105
v -15.70619554 2.27168509 12.83476105
v -15.70619554 2.27168509 12.83476105
v -15.70619554 2.27168509 12.83476105
v -15.70619554 2.27168509 12.83476105
v -15.70619554 2.27168509 12.83476105
v -12.46138495 4.80929774 14.66500903
v -12.46138495 4.80929774 14.66500903
v -12.46138495 4.80929774 14.66500903
v -12.46138495 4.80929774 14.66500903
v -12.46138495 4.80929774 14.66500903
v -12.46138495 4.80929774 14.66500903
v -8.59881923 -1.27895139 8.60288558
v -8.59881923 -1.27895139 8.60288558
v -8.59881923 -1.27895139 8.60288558
v 6.04518220 3.78779966 18.08827528
v 6.04518220 3.78779966 18.08827528
v 6.04518220 3.78779966 18.08827528
v 6.04518220 3.78779966 18.08827528
v 6.04518220 3.78779966 18.08827528
v 6.04518220 3.78779966 18.08827528
v 6.04518220 3.78779966 18.08827528
v 6.04518220 3.78779966 18.08827528
v 10.28489981 3.81385644 14.10530330
v 10.28489981 3.81385644 14.10530330
v 10.28489981 3.81385644 14.10530330
v 10.28489981 3.81385644 14.10530330
v 10.28489981 3.81385644 14.10530330
v -8.19734629 -0.51949196 -8.92174628
v -8.19734629 -0.51949196 -8.92174628
v -8.19734629 -0.51949196 -8.92174628
v -8.19734629 -0.51949196 -8.92174628
v -4.24522542 -1.41578063 20.07189932
v -4.24522542 -1.41578063 20.07189932
v -10.34224299 5.43004824 14.12099891
v -10.34224299 5.43004824 14.12099891
v -10.34224299 5.43004824 14.12099891
v -10.34224299 5.43004824 14.12099891
v -10.34224299 5.43004824 14.12099891
v 18.79048142 4.40414571 -8.78151728
v 18.79048142 4.40414571 -8.78151728
v 18.79048142 4.40414571 -8.78151728
v 18.79048142 4.40414571 -8.78151728
v 18.79048142 4.40414571 -8.78151728
v 18.79048142 4.40414571 -8.78151728
v 11.00612208 -1.16100535 -6.63226156
v 11.00612208 -1.16100535 -6.63226156
v 11.00612208 -1.16100535 -6.63226156
v 11.00612208 -1.16100535 -6.63226156
v -7.28068470 1.81650908 -14.22953342
v -7.28068470 1.81650908 -14.22953342
v -7.28068470 1.81650908 -14.22953342
v -7.28068470 1.81650908 -14.22953342
v -7.28068470 1.81650908 -14.22953342
v -7.28068470 1.81650908 -14.22953342
v -7.28068470 1.81650908 -14.22953342
v -5.39597859 -0.62893899 -10.76554004
v -5.39597859 -0.62893899 -10.76554004
v -13.86362833 3.04805509 7.98018678
v -13.86362833 3.04805509 7.98018678
v -13.86362833 3.04805509 7.98018678
v -13.86362833 3.04805509 7.98018678
v -13.86362833 3.04805509 7.98018678
v -3.52725192 2.94007131 17.96017958
v -3.52725192 2.94007131 17.96017958
v -3.52725192 2.94007131 17.96017958
v -3.52725192 2.94007131 17.96017958
v -3.52725192 2.94007131 17.96017958
v -3.52725192 2.94007131 17.96017958
v 6.08139478 1.50520835 16.44175254
v 6.08139478 1.50520835 16.44175254
v 6.08139478 1.50520835 16.44175254
v 6.08139478 1.50520835 16.44175254
v 6.08139478 1.50520835 16.44175254
v 6.08139478 1.50520835 16.44175254
v 6.08139478 1.50520835 16.44175254
v 7.63081572 0.31968924 13.88648670
v 7.63081572 0.31968924 13.88648670
v 7.63081572 0.31968924 13.88648670
v 7.63081572 0.31968924 13.88648670
v 7.63081572 0.31968924 13.88648670
v 5.42663493 -1.19328499 10.82777811
v 5.42663493 -1.19328499 10.82777811
v 5.42663493 -1.19328499 10.82777811
v 5.42663493 -1.19328499 10.82777811
v 17.04944996 1.97903308 5.10017775
v 17.04944996 1.97903308 5.10017775
v 17.04944996 1.97903308 5.10017775
v 17.04944996 1.97903308 5.10017775
v 17.04944996 1.97903308 5.10017775
v 17.04944996 1.97903308 5.10017775
v 17.04944996 1.97903308 5.10017775
v 20.28334531 -1.36235382 -3.81943674
v 20.28334531 -1.36235382 -3.81943674
v 20.28334531 -1.36235382 -3.81943674
v 14.20806773 2.78317231 -15.02158244
v 14.20806773 2.78317231 -15.02158244
v 14.20806773 2.78317231 -15.02158244
v 14.20806773 2.78317231 -15.02158244
v 14.20806773 2.78317231 -15.02158244
v 14.20806773 2.78317231 -15.02158244
v 13.84985844 4.29921179 -14.76723617
v 13.84985844 4.29921179 -14.76723617
v 13.84985844 4.29921179 -14.76723617
v 13.84985844 4.29921179 -14.76723617
v 13.84985844 4.29921179 -14.76723617
v 13.84985844 4.29921179 -14.76723617
v 10.86682837 4.33540535 -16.11290411
v 10.86682837 4.33540535 -16.11290411
v 10.86682837 4.33540535 -16.11290411
v 10.86682837 4.33540535 -16.11290411
v 10.86682837 4.33540535 -16.11290411
v 10.89835389 2.09226491 -14.17994685
v 10.89835389 2.09226491 -14.17994685
v 10.89835389 2.09226491 -14.17994685
v 10.89835389 2.09226491 -14.17994685
v 10.89835389 2.09226491 -14.17994685
v 10.89835389 2.09226491 -14.17994685
v 10.72184586 0.74966235 -13.43192216
v 10.72184586 0.74966235 -13.43192216
v 10.72184586 0.74966235 -13.43192216
v 10.72184586 0.74966235 -13.43192216
v 10.72184586 0.74966235 -13.43192216
v 10.72184586 0.74966235 -13.43192216
v 8.68608176 -1.40202388 -18.59379362
v 8.68608176 -1.40202388 -18.59379362
v -0.52602587 0.54959677 -20.57162920
v -0.52602587 0.54959677 -20.57162920
v -0.52602587 0.54959677 -20.57162920
v -0.52602587 0.54959677 -20.57162920
v -0.52602587 0.54959677 -20.57162920
v -0.52602587 0.54959677 -20.57162920
v -8.54292741 -1.41555549 -18.64219394
v -8.54292741 -1.41555549 -18.64219394
v -11.37582418 -1.42787758 -17.14166959
v -11.37582418 -1.42787758 -17.14166959
v -11.37582418 -1.42787758 -17.14166959
v -18.64222222 -1.41555701 -8.54287934
v -18.64222222 -1.41555701 -8.54287934
v -18.64222222 -1.41555701 -8.54287934
v -20.27686262 -1.41414658 -3.46528108
v -20.27686262 -1.41414658 -3.46528108
v -20.27686262 -1.41414658 -3.46528108
v -20.27686262 -1.41414658 -3.46528108
v -19.99950527 2.36149657 2.52679555
v -19.99950527 2.36149657 2.52679555
v -19.99950527 2.36149657 2.52679555
v -19.99950527 2.36149657 2.52679555
v -19.99950527 2.36149657 2.52679555
v -19.99950527 2.36149657 2.52679555
v -18.64220667 -1.41555317 8.54288853
v -18.64220667 -1.41555317 8.54288853
v -16.19308304 -1.41571782 12.65792570
v -16.19308304 -1.41571782 12.65792570
v -16.19308304 -1.41571782 12.65792570
v -13.30622018 4.82377321 11.42564546
v -13.30622018 4.82377321 11.42564546
v -13.30622018 4.82377321 11.42564546
v -13.30622018 4.82377321 11.42564546
v -13.30622018 4.82377321 11.42564546
v -13.30622018 4.82377321 11.42564546
v -11.44599913 3.30896403 11.06783347
v -11.44599913 3.30896403 11.06783347
v -11.44599913 3.30896403 11.06783347
v -11.44599913 3.30896403 11.06783347
v -11.44599913 3.30896403 11.06783347
v -11.44599913 3.30896403 11.06783347
v -11.02892602 1.04662124 10.91509507
v -11.02892602 1.04662124 10.91509507
v -11.02892602 1.04662124 10.91509507
v -11.02892602 1.04662124 10.91509507
v -11.02892602 1.04662124 10.91509507
v -11.02892602 1.04662124 10.91509507
v -13.65291756 5.96093041 -12.45422784
v -13.65291756 5.96093041 -12.45422784
v -13.65291756 5.96093041 -12.45422784
v -13.65291756 5.96093041 -12.45422784
v -13.65291756 5.96093041 -12.45422784
v 1.26600216 0.80795921 20.51928978
v 1.26600216 0.80795921 20.51928978
v 1.26600216 0.80795921 20.51928978
v 1.26600216 0.80795921 20.51928978
v 1.26600216 0.80795921 20.51928978
v 1.26600216 0.80795921 20.51928978
v 1.26600216 0.80795921 20.51928978
v 5.51535977 -1.40818575 19.81102653
v 5.51535977 -1.40818575 19.81102653
v 5.51535977 -1.40818575 19.81102653
v 5.51535977 -1.40818575 19.81102653
v 10.77478123 -1.41555858 17.45561843
v 10.77478123 -1.41555858 17.45561843
v 10.77478123 -1.41555858 17.45561843
v 14.15786046 -1.41575211 14.87879359
v 14.15786046 -1.41575211 14.87879359
v 14.15786046 -1.41575211 14.87879359
v 13.09079409 4.19955243 10.36239376
v 13.09079409 4.19955243 10.36239376
v 13.09079409 4.19955243 10.36239376
v 13.09079409 4.19955243 10.36239376
v 13.09079409 4.19955243 10.36239376
v 13.09079409 4.19955243 10.36239376
v 13.09079409 4.19955243 10.36239376
v 13.09079409 4.19955243 10.36239376
v 17.50039777 4.19352187 -9.44038342
v 17.50039777 4.19352187 -9.44038342
v 17.50039777 4.19352187 -9.44038342
v 17.50039777 4.19352187 -9.44038342
v 17.50039777 4.19352187 -9.44038342
v 17.50039777 4.19352187 -9.44038342
v 2.50390430 2.64064823 17.00850085
v 2.50390430 2.64064823 17.00850085
v 2.50390430 2.64064823 17.00850085
v 2.50390430 2.64064823 17.00850085
v -10.65312510 4.62243216 -12.01223844
v -10.65312510 4.62243216 -12.01223844
v -10.65312510 4.62243216 -12.01223844
v -10.65312510 4.62243216 -12.01223844
v -10.65312510 4.62243216 -12.01223844
v -12.44454551 0.71381136 -10.21756608
v -12.44454551 0.71381136 -10.21756608
v -12.44454551 0.71381136 -10.21756608
v -12.44454551 0.71381136 -10.21756608
v -12.44454551 0.71381136 -10.21756608
v -12.07234012 -1.41602558 16.64573035
v -12.07234012 -1.41602558 16.64573035
v -12.07234012 -1.41602558 16.64573035
v -7.54409260 -1.43530255 19.12508297
v -7.54409260 -1.43530255 19.12508297
v -7.54409260 -1.43530255 19.12508297
v -7.54409260 -1.43530255 19.12508297
v -7.54409260 -1.43530255 19.12508297
v -0.65208172 2.93413748 18.19344049
v -0.65208172 2.93413748 18.19344049
v -0.65208172 2.93413748 18.19344049
v -0.65208172 2.93413748 18.19344049
v -0.65208172 2.93413748 18.19344049
v -0.65208172 2.93413748 18.19344049
v 19.29808667 -1.40748646 7.01690849
v 19.29808667 -1.40748646 7.01690849
v 19.29808667 -1.40748646 7.01690849
v 16.83130072 4.45899605 8.12501799
v 16.83130072 4.45899605 8.12501799
v 16.83130072 4.45899605 8.12501799
v 16.83130072 4.45899605 8.12501799
v 16.20533300 -1.42142269 -12.61580447
v 16.20533300 -1.42142269 -12.61580447
v 16.20533300 -1.42142269 -12.61580447
v 20.62755990 1.61112248 -5.85294993
v 20.62755990 1.61112248 -5.85294993
v 20.62755990 1.61112248 -5.85294993
v 20.62755990 1.61112248 -5.85294993
v 20.62755990 1.61112248 -5.85294993
v 20.62755990 1.61112248 -5.85294993
v 18.18874071 -1.40593508 -9.64243834
v 18.18874071 -1.40593508 -9.64243834
v 18.18874071 -1.40593508 -9.64243834
v 15.13395708 0.90198551 -14.11617471
v 15.13395708 0.90198551 -14.11617471
v 15.13395708 0.90198551 -14.11617471
v 15.13395708 0.90198551 -14.11617471
v 15.13395708 0.90198551 -14.11617471
v 21.17084045 3.20241800 -3.96680413
v 21.17084045 3.20241800 -3.96680413
v 21.17084045 3.20241800 -3.96680413
v 21.17084045 3.20241800 -3.96680413
v 21.17084045 3.20241800 -3.96680413
v 21.17084045 3.20241800 -3.96680413
v 20.87437861 3.99671551 -4.99977416
v 20.87437861 3.99671551 -4.99977416
v 20.87437861 3.99671551 -4.99977416
v 20.87437861 3.99671551 -4.99977416
v 20.87437861 3.99671551 -4.99977416
v 20.87437861 3.99671551 -4.99977416
v 20.87437861 3.99671551 -4.99977416
v 16.46048518 3.36101269 -11.96217680
v 16.46048518 3.36101269 -11.96217680
v 16.46048518 3.36101269 -11.96217680
v 16.46048518 3.36101269 -11.96217680
v 16.46048518 3.36101269 -11.96217680
v 16.46048518 3.36101269 -11.96217680
v 20.15382299 4.36283624 -4.58722410
v 20.15382299 4.36283624 -4.58722410
v 20.15382299 4.36283624 -4.58722410
v 20.15382299 4.36283624 -4.58722410
v 20.15382299 4.36283624 -4.58722410
v 20.15382299 4.36283624 -4.58722410
v 17.20779020 0.49650851 -4.54988112
v 17.20779020 0.49650851 -4.54988112
v 17.20779020 0.49650851 -4.54988112
v 17.20779020 0.49650851 -4.54988112
v 17.20779020 0.49650851 -4.54988112
v 14.83695797 0.86657637 -9.22275095
v 14.83695797 0.86657637 -9.22275095
v 14.83695797 0.86657637 -9.22275095
v 14.83695797 0.86657637 -9.22275095
v 14.83695797 0.86657637 -9.22275095
v 14.83695797 0.86657637 -9.22275095
v 12.70858824 -1.18135322 -3.16516045
v 12.70858824 -1.18135322 -3.16516045
v 12.70858824 -1.18135322 -3.16516045
v 12.70858824 -1.18135322 -3.16516045
v 18.35717331 3.11886532 -5.55921726
v 18.35717331 3.11886532 -5.55921726
v 18.35717331 3.11886532 -5.55921726
v 18.35717331 3.11886532 -5.55921726
v 18.35717331 3.11886532 -5.55921726
v 15.19544579 3.84678930 -12.40553626
v 15.19544579 3.84678930 -12.40553626
v 15.19544579 3.84678930 -12.40553626
v 15.19544579 3.84678930 -12.40553626
v 15.19544579 3.84678930 -12.40553626
v 15.19544579 3.84678930 -12.40553626
v 15.19544579 3.84678930 -12.40553626
v 17.41392137 0.75281296 0.33503329
v 17.41392137 0.75281296 0.33503329
v 17.41392137 0.75281296 0.33503329
v 17.41392137 0.75281296 0.33503329
v 17.41392137 0.75281296 0.33503329
v 17.41392137 0.75281296 0.33503329
v 17.41392137 0.75281296 0.33503329
v 9.47689857 0.39755424 -18.39234243
v 9.47689857 0.39755424 -18.39234243
v 9.47689857 0.39755424 -18.39234243
v 9.47689857 0.39755424 -18.39234243
v 9.47689857 0.39755424 -18.39234243
v 9.47689857 0.39755424 -18.39234243
v 3.52694829 2.35769199 -19.84521300
v 3.52694829 2.35769199 -19.84521300
v 3.52694829 2.35769199 -19.84521300
v 3.52694829 2.35769199 -19.84521300
v 3.52694829 2.35769199 -19.84521300
v 9.76647829 2.31911421 -18.09148057
v 9.76647829 2.31911421 -18.09148057
v 9.76647829 2.31911421 -18.09148057
v 9.76647829 2.31911421 -18.09148057
v 9.76647829 2.31911421 -18.09148057
v 9.76647829 2.31911421 -18.09148057
v 9.76647829 2.31911421 -18.09148057
v 9.45527169 3.56713407 -17.73054388
v 9.45527169 3.56713407 -17.73054388
v 9.45527169 3.56713407 -17.73054388
v 9.45527169 3.56713407 -17.73054388
v 9.45527169 3.56713407 -17.73054388
v 6.15758866 3.04845897 -18.64891841
v 6.15758866 3.04845897 -18.64891841
v 6.15758866 3.04845897 -18.64891841
v 6.15758866 3.04845897 -18.64891841
v 6.15758866 3.04845897 -18.64891841
v 6.15758866 3.04845897 -18.64891841
v 6.15758866 3.04845897 -18.64891841
v 6.15758866 3.04845897 -18.64891841
v 8.76278605 3.59701326 -17.30078181
v 8.76278605 3.59701326 -17.30078181
v 8.76278605 3.59701326 -17.30078181
v 8.76278605 3.59701326 -17.30078181
v 8.76278605 3.59701326 -17.30078181
v 8.76278605 3.59701326 -17.30078181
v 3.88235984 0.65225910 -20.22489081
v 3.88235984 0.65225910 -20.22489081
v 3.88235984 0.65225910 -20.22489081
v 3.88235984 0.65225910 -20.22489081
v 3.88235984 0.65225910 -20.22489081
v 3.88235984 0.65225910 -20.22489081
v 0.15245547 2.67258370 -19.95725962
v 0.15245547 2.67258370 -19.95725962
v 0.15245547 2.67258370 -19.95725962
v 0.15245547 2.67258370 -19.95725962
v 5.20005395 2.84142717 -17.98071776
v 5.20005395 2.84142717 -17.98071776
v 5.20005395 2.84142717 -17.98071776
v 5.20005395 2.84142717 -17.98071776
v 5.20005395 2.84142717 -17.98071776
v 1.91333351 3.06436625 -16.75017731
v 1.91333351 3.06436625 -16.75017731
v 1.91333351 3.06436625 -16.75017731
v 1.91333351 3.06436625 -16.75017731
v 1.91333351 3.06436625 -16.75017731
v 1.91333351 3.06436625 -16.75017731
v 8.26075153 0.65871857 -15.11702291
v 8.26075153 0.65871857 -15.11702291
v 8.26075153 0.65871857 -15.11702291
v 8.26075153 0.65871857 -15.11702291
v 8.26075153 0.65871857 -15.11702291
v 8.26075153 0.65871857 -15.11702291
v 8.26075153 0.65871857 -15.11702291
v 5.28659998 1.84117330 -16.73578955
v 5.28659998 1.84117330 -16.73578955
v 5.28659998 1.84117330 -16.73578955
v 5.28659998 1.84117330 -16.73578955
v 5.28659998 1.84117330 -16.73578955
v 5.04898111 0.57953598 -16.17160321
v 5.04898111 0.57953598 -16.17160321
v 5.04898111 0.57953598 -16.17160321
v 5.04898111 0.57953598 -16.17160321
v 5.04898111 0.57953598 -16.17160321
v 5.04898111 0.57953598 -16.17160321
v 1.36703722 1.13099864 -15.74565723
v 1.36703722 1.13099864 -15.74565723
v 1.36703722 1.13099864 -15.74565723
v 1.36703722 1.13099864 -15.74565723
v 1.36703722 1.13099864 -15.74565723
v 1.36703722 1.13099864 -15.74565723
v 6.15069382 -1.12504164 -11.16528238
v 6.15069382 -1.12504164 -11.16528238
v 6.15069382 -1.12504164 -11.16528238
v 6.15069382 -1.12504164 -11.16528238
v 3.69526565 -1.10198630 -12.08542427
v 3.69526565 -1.10198630 -12.08542427
v 3.69526565 -1.10198630 -12.08542427
v -5.56096377 -1.42891951 -19.80134845
v -5.56096377 -1.42891951 -19.80134845
v -5.56096377 -1.42891951 -19.80134845
v -8.08497165 1.22738032 -18.84307392
v -8.08497165 1.22738032 -18.84307392
v -8.08497165 1.22738032 -18.84307392
v -8.08497165 1.22738032 -18.84307392
v -8.08497165 1.22738032 -18.84307392
v -8.08497165 1.22738032 -18.84307392
v -8.08497165 1.22738032 -18.84307392
v -8.08497165 1.22738032 -18.84307392
v -13.64338794 1.32471506 -15.32107566
v -13.64338794 1.32471506 -15.32107566
v -13.64338794 1.32471506 -15.32107566
v -13.64338794 1.32471506 -15.32107566
v -13.64338794 1.32471506 -15.32107566
v -13.64338794 1.32471506 -15.32107566
v -13.64338794 1.32471506 -15.32107566
v -10.08964359 2.31831749 -17.40153427
v -10.08964359 2.31831749 -17.40153427
v -10.08964359 2.31831749 -17.40153427
v -10.08964359 2.31831749 -17.40153427
v -10.08964359 2.31831749 -17.40153427
v -5.51716602 3.47576054 -18.64834013
v -5.51716602 3.47576054 -18.64834013
v -5.51716602 3.47576054 -18.64834013
v -5.51716602 3.47576054 -18.64834013
v -5.51716602 3.47576054 -18.64834013
v -5.51716602 3.47576054 -18.64834013
v -5.51716602 3.47576054 -18.64834013
v -11.80353399 3.44660214 -15.42265242
v -11.80353399 3.44660214 -15.42265242
v -11.80353399 3.44660214 -15.42265242
v -11.80353399 3.44660214 -15.42265242
v -2.70275199 2.98895091 -19.62227774
v -2.70275199 2.98895091 -19.62227774
v -2.70275199 2.98895091 -19.62227774
v -2.70275199 2.98895091 -19.62227774
v -2.70275199 2.98895091 -19.62227774
v -2.70275199 2.98895091 -19.62227774
v -2.70275199 2.98895091 -19.62227774
v -2.70275199 2.98895091 -19.62227774
v -3.49328956 0.97070296 -20.22321394
v -3.49328956 0.97070296 -20.22321394
v -3.49328956 0.97070296 -20.22321394
v -3.49328956 0.97070296 -20.22321394
v -1.96332835 2.83334668 -17.09934900
v -1.96332835 2.83334668 -17.09934900
v -1.96332835 2.83334668 -17.09934900
v -1.96332835 2.83334668 -17.09934900
v -1.96332835 2.83334668 -17.09934900
v -1.96332835 2.83334668 -17.09934900
v -1.96332835 2.83334668 -17.09934900
v -9.32386325 4.18450296 -14.93591620
v -9.32386325 4.18450296 -14.93591620
v -9.32386325 4.18450296 -14.93591620
v -9.32386325 4.18450296 -14.93591620
v -9.32386325 4.18450296 -14.93591620
v -9.32386325 4.18450296 -14.93591620
v -7.80447406 3.42165729 -14.56254576
v -7.80447406 3.42165729 -14.56254576
v -7.80447406 3.42165729 -14.56254576
v -7.80447406 3.42165729 -14.56254576
v -7.80447406 3.42165729 -14.56254576
v -4.24868804 2.94769490 -15.41923929
v -4.24868804 2.94769490 -15.41923929
v -4.24868804 2.94769490 -15.41923929
v -4.24868804 2.94769490 -15.41923929
v -4.24868804 2.94769490 -15.41923929
v -4.24868804 2.94769490 -15.41923929
v -12.29244053 2.17528008 -10.40469526
v -12.29244053 2.17528008 -10.40469526
v -12.29244053 2.17528008 -10.40469526
v -12.29244053 2.17528008 -10.40469526
v -12.29244053 2.17528008 -10.40469526
v -4.93935789 3.64700987 -16.36841684
v -4.93935789 3.64700987 -16.36841684
v -4.93935789 3.64700987 -16.36841684
v -4.93935789 3.64700987 -16.36841684
v -4.93935789 3.64700987 -16.36841684
v -1.30078353 -0.71484307 -12.41578555
v -1.30078353 -0.71484307 -12.41578555
v -1.30078353 -0.71484307 -12.41578555
v -1.70491378 1.28051355 -16.51043512
v -1.70491378 1.28051355 -16.51043512
v -1.70491378 1.28051355 -16.51043512
v -1.70491378 1.28051355 -16.51043512
v -1.70491378 1.28051355 -16.51043512
v -18.41135503 0.89541383 -9.12231450
v -18.41135503 0.89541383 -9.12231450
v -18.41135503 0.89541383 -9.12231450
v -18.41135503 0.89541383 -9.12231450
v -18.41135503 0.89541383 -9.12231450
v -18.41135503 0.89541383 -9.12231450
v -18.41135503 0.89541383 -9.12231450
v -16.22802312 0.05504964 -12.64909595
v -16.22802312 0.05504964 -12.64909595
v -16.22802312 0.05504964 -12.64909595
v -16.22802312 0.05504964 -12.64909595
v -18.21118341 4.07447435 -5.31468021
v -18.21118341 4.07447435 -5.31468021
v -18.21118341 4.07447435 -5.31468021
v -18.21118341 4.07447435 -5.31468021
v -18.21118341 4.07447435 -5.31468021
v -18.21118341 4.07447435 -5.31468021
v -18.21118341 4.07447435 -5.31468021
v -18.56807495 4.09920921 -1.89652606
v -18.56807495 4.09920921 -1.89652606
v -18.56807495 4.09920921 -1.89652606
v -18.56807495 4.09920921 -1.89652606
v -18.56807495 4.09920921 -1.89652606
v -18.56807495 4.09920921 -1.89652606
v -16.14558196 3.30302383 -10.59428744
v -16.14558196 3.30302383 -10.59428744
v -16.14558196 3.30302383 -10.59428744
v -16.14558196 3.30302383 -10.59428744
v -16.14558196 3.30302383 -10.59428744
v -19.63860394 0.27237244 -6.12858198
v -19.63860394 0.27237244 -6.12858198
v -19.63860394 0.27237244 -6.12858198
v -19.63860394 0.27237244 -6.12858198
v -19.90051594 2.68941497 -2.12830044
v -19.90051594 2.68941497 -2.12830044
v -19.90051594 2.68941497 -2.12830044
v -19.90051594 2.68941497 -2.12830044
v -19.90051594 2.68941497 -2.12830044
v -15.78954441 -1.42133763 -13.22492286
v -15.78954441 -1.42133763 -13.22492286
v -15.78954441 -1.42133763 -13.22492286
v -15.78954441 -1.42133763 -13.22492286
v -15.19490993 2.91514937 -7.95244694
v -15.19490993 2.91514937 -7.95244694
v -15.19490993 2.91514937 -7.95244694
v -15.19490993 2.91514937 -7.95244694
v -15.19490993 2.91514937 -7.95244694
v -16.76796689 4.20416137 1.48439610
v -16.76796689 4.20416137 1.48439610
v -16.76796689 4.20416137 1.48439610
v -16.76796689 4.20416137 1.48439610
v -16.76796689 4.20416137 1.48439610
v -16.76796689 4.20416137 1.48439610
v -16.59309967 1.49631650 -3.05022242
v -16.59309967 1.49631650 -3.05022242
v -16.59309967 1.49631650 -3.05022242
v -16.59309967 1.49631650 -3.05022242
v -16.59309967 1.49631650 -3.05022242
v -16.01347223 1.47632380 -5.47931191
v -16.01347223 1.47632380 -5.47931191
v -16.01347223 1.47632380 -5.47931191
v -16.01347223 1.47632380 -5.47931191
v -16.01347223 1.47632380 -5.47931191
v -16.01347223 1.47632380 -5.47931191
v -14.97606646 1.14737831 -7.64472841
v -14.97606646 1.14737831 -7.64472841
v -14.97606646 1.14737831 -7.64472841
v -14.97606646 1.14737831 -7.64472841
v -14.97606646 1.14737831 -7.64472841
v -16.61965962 2.19971584 -1.48118436
v -16.61965962 2.19971584 -1.48118436
v -16.61965962 2.19971584 -1.48118436
v -16.61965962 2.19971584 -1.48118436
v -16.61965962 2.19971584 -1.48118436
v -16.61965962 2.19971584 -1.48118436
v -11.13970721 -1.07549414 -6.11130423
v -11.13970721 -1.07549414 -6.11130423
v -11.13970721 -1.07549414 -6.11130423
v -11.13970721 -1.07549414 -6.11130423
v -12.47747645 -0.95459370 -2.52727062
v -12.47747645 -0.95459370 -2.52727062
v -12.47747645 -0.95459370 -2.52727062
v -15.58924130 3.61433580 -8.44605679
v -15.58924130 3.61433580 -8.44605679
v -15.58924130 3.61433580 -8.44605679
v -15.58924130 3.61433580 -8.44605679
v -15.58924130 3.61433580 -8.44605679
v -15.58924130 3.61433580 -8.44605679
v -15.58924130 3.61433580 -8.44605679
v -12.93910338 -1.18674743 -0.81310716
v -12.93910338 -1.18674743 -0.81310716
v -12.93910338 -1.18674743 -0.81310716
v -12.79059675 3.47883288 -10.13628431
v -12.79059675 3.47883288 -10.13628431
v -12.79059675 3.47883288 -10.13628431
v -12.79059675 3.47883288 -10.13628431
v -12.79059675 3.47883288 -10.13628431
v -12.79059675 3.47883288 -10.13628431
v -12.79059675 3.47883288 -10.13628431
v -15.03529860 0.01746352 14.12575100
v -15.03529860 0.01746352 14.12575100
v -15.03529860 0.01746352 14.12575100
v -15.03529860 0.01746352 14.12575100
v -15.03529860 0.01746352 14.12575100
v -15.03529860 0.01746352 14.12575100
v -18.31212533 0.04853905 9.42102301
v -18.31212533 0.04853905 9.42102301
v -18.31212533 0.04853905 9.42102301
v -18.31212533 0.04853905 9.42102301
v -18.31212533 0.04853905 9.42102301
v -18.31212533 0.04853905 9.42102301
v -18.31212533 0.04853905 9.42102301
v -19.59796023 1.29803082 5.80338634
v -19.59796023 1.29803082 5.80338634
v -19.59796023 1.29803082 5.80338634
v -19.59796023 1.29803082 5.80338634
v -19.59796023 1.29803082 5.80338634
v -19.59796023 1.29803082 5.80338634
v -18.29329089 2.22361495 8.80553505
v -18.29329089 2.22361495 8.80553505
v -18.29329089 2.22361495 8.80553505
v -18.29329089 2.22361495 8.80553505
v -18.29329089 2.22361495 8.80553505
v -18.24337064 3.72850287 7.73455078
v -18.24337064 3.72850287 7.73455078
v -18.24337064 3.72850287 7.73455078
v -18.24337064 3.72850287 7.73455078
v -18.24337064 3.72850287 7.73455078
v -18.24337064 3.72850287 7.73455078
v -18.24337064 3.72850287 7.73455078
v -17.71984356 4.71284309 7.01906821
v -17.71984356 4.71284309 7.01906821
v -17.71984356 4.71284309 7.01906821
v -17.71984356 4.71284309 7.01906821
v -15.73423582 5.61452536 9.23088083
v -15.73423582 5.61452536 9.23088083
v -15.73423582 5.61452536 9.23088083
v -15.73423582 5.61452536 9.23088083
v -15.73423582 5.61452536 9.23088083
v -15.73423582 5.61452536 9.23088083
v -15.73423582 5.61452536 9.23088083
v -20.42773893 0.31898309 2.37698708
v -20.42773893 0.31898309 2.37698708
v -20.42773893 0.31898309 2.37698708
v -20.42773893 0.31898309 2.37698708
v -20.54642659 0.98585998 0.37623330
v -20.54642659 0.98585998 0.37623330
v -20.54642659 0.98585998 0.37623330
v -20.54642659 0.98585998 0.37623330
v -20.54642659 0.98585998 0.37623330
v -20.54642659 0.98585998 0.37623330
v -14.95564705 4.63007229 5.95494697
v -14.95564705 4.63007229 5.95494697
v -14.95564705 4.63007229 5.95494697
v -14.95564705 4.63007229 5.95494697
v -14.95564705 4.63007229 5.95494697
v -14.95564705 4.63007229 5.95494697
v -13.98704687 2.48433594 5.72050652
v -13.98704687 2.48433594 5.72050652
v -13.98704687 2.48433594 5.72050652
v -13.98704687 2.48433594 5.72050652
v -13.98704687 2.48433594 5.72050652
v -13.98704687 2.48433594 5.72050652
v -12.99500580 1.75080288 8.80713204
v -12.99500580 1.75080288 8.80713204
v -12.99500580 1.75080288 8.80713204
v -12.99500580 1.75080288 8.80713204
v -12.99500580 1.75080288 8.80713204
v -13.63414816 0.94739525 7.60081861
v -13.63414816 0.94739525 7.60081861
v -13.63414816 0.94739525 7.60081861
v -13.63414816 0.94739525 7.60081861
v -13.63414816 0.94739525 7.60081861
v -13.63414816 0.94739525 7.60081861
v -13.63414816 0.94739525 7.60081861
v -10.81132820 -1.29632002 2.71322485
v -10.81132820 -1.29632002 2.71322485
v -10.81132820 -1.29632002 2.71322485
v -10.81132820 -1.29632002 2.71322485
v -10.30297782 -1.35835163 6.23954556
v -10.30297782 -1.35835163 6.23954556
v -14.79315845 5.06818984 9.25131226
v -14.79315845 5.06818984 9.25131226
v -14.79315845 5.06818984 9.25131226
v -14.79315845 5.06818984 9.25131226
v -14.79315845 5.06818984 9.25131226
v -14.79315845 5.06818984 9.25131226
v -12.29658323 -1.32158045 0.78586051
v -12.29658323 -1.32158045 0.78586051
v -12.29658323 -1.32158045 0.78586051
v -12.29658323 -1.32158045 0.78586051
v -0.47231016 -1.42218888 20.55631959
v -0.47231016 -1.42218888 20.55631959
v -0.47231016 -1.42218888 20.55631959
v -11.19326469 0.04168112 17.26532426
v -11.19326469 0.04168112 17.26532426
v -11.19326469 0.04168112 17.26532426
v -11.19326469 0.04168112 17.26532426
v -11.19326469 0.04168112 17.26532426
v -3.55465773 0.82461655 20.23608600
v -3.55465773 0.82461655 20.23608600
v -3.55465773 0.82461655 20.23608600
v -3.55465773 0.82461655 20.23608600
v -3.55465773 0.82461655 20.23608600
v -3.55465773 0.82461655 20.23608600
v -3.55465773 0.82461655 20.23608600
v -9.36175553 2.19607205 17.94210722
v -9.36175553 2.19607205 17.94210722
v -9.36175553 2.19607205 17.94210722
v -9.36175553 2.19607205 17.94210722
v -9.36175553 2.19607205 17.94210722
v -9.36175553 2.19607205 17.94210722
v -9.36175553 2.19607205 17.94210722
v -6.11509275 1.40101006 19.49184912
v -6.11509275 1.40101006 19.49184912
v -6.11509275 1.40101006 19.49184912
v -6.11509275 1.40101006 19.49184912
v -2.87888021 2.78534611 19.72769038
v -2.87888021 2.78534611 19.72769038
v -2.87888021 2.78534611 19.72769038
v -2.87888021 2.78534611 19.72769038
v -2.87888021 2.78534611 19.72769038
v -2.87888021 2.78534611 19.72769038
v -2.87888021 2.78534611 19.72769038
v -2.87888021 2.78534611 19.72769038
v -6.32528673 3.43029989 18.74060500
v -6.32528673 3.43029989 18.74060500
v -6.32528673 3.43029989 18.74060500
v -6.32528673 3.43029989 18.74060500
v -6.32528673 3.43029989 18.74060500
v -12.86399607 2.12165600 15.70930044
v -12.86399607 2.12165600 15.70930044
v -12.86399607 2.12165600 15.70930044
v -12.86399607 2.12165600 15.70930044
v -12.86399607 2.12165600 15.70930044
v -8.39021941 1.41374573 12.70383191
v -8.39021941 1.41374573 12.70383191
v -8.39021941 1.41374573 12.70383191
v -8.39021941 1.41374573 12.70383191
v -8.39021941 1.41374573 12.70383191
v -8.39021941 1.41374573 12.70383191
v -8.39021941 1.41374573 12.70383191
v -0.83382472 1.14249108 17.10298836
v -0.83382472 1.14249108 17.10298836
v -0.83382472 1.14249108 17.10298836
v -0.83382472 1.14249108 17.10298836
v -0.83382472 1.14249108 17.10298836
v -0.83382472 1.14249108 17.10298836
v -0.83382472 1.14249108 17.10298836
v -0.83382472 1.14249108 17.10298836
v -4.75398512 2.27020619 16.15142840
v -4.75398512 2.27020619 16.15142840
v -4.75398512 2.27020619 16.15142840
v -4.75398512 2.27020619 16.15142840
v -4.75398512 2.27020619 16.15142840
v -4.75398512 2.27020619 16.15142840
v -4.75398512 2.27020619 16.15142840
v -4.94818305 -1.07533842 11.46296723
v -4.94818305 -1.07533842 11.46296723
v -3.59598576 -0.95067484 12.33356638
v -3.59598576 -0.95067484 12.33356638
v -3.59598576 -0.95067484 12.33356638
v -3.59598576 -0.95067484 12.33356638
v -8.85596147 4.54179358 13.24291604
v -8.85596147 4.54179358 13.24291604
v -8.85596147 4.54179358 13.24291604
v -8.85596147 4.54179358 13.24291604
v -8.85596147 4.54179358 13.24291604
v -8.85596147 4.54179358 13.24291604
v -7.17703164 4.69746229 16.43744583
v -7.17703164 4.69746229 16.43744583
v -7.17703164 4.69746229 16.43744583
v -7.17703164 4.69746229 16.43744583
v -7.17703164 4.69746229 16.43744583
v -7.17703164 4.69746229 16.43744583
v -7.17703164 4.69746229 16.43744583
v -6.33746175 4.39134089 15.83558494
v -6.33746175 4.39134089 15.83558494
v -6.33746175 4.39134089 15.83558494
v -6.33746175 4.39134089 15.83558494
v -6.33746175 4.39134089 15.83558494
v -0.01988814 -0.94983395 13.00451987
v -0.01988814 -0.94983395 13.00451987
v -6.73932775 -1.19682376 9.75868563
v -6.73932775 -1.19682376 9.75868563
v -6.73932775 -1.19682376 9.75868563
v 12.53731656 0.70541566 16.27904055
v 12.53731656 0.70541566 16.27904055
v 12.53731656 0.70541566 16.27904055
v 12.53731656 0.70541566 16.27904055
v 12.53731656 0.70541566 16.27904055
v 12.53731656 0.70541566 16.27904055
v 9.98819832 0.09809658 18.01017335
v 9.98819832 0.09809658 18.01017335
v 9.98819832 0.09809658 18.01017335
v 9.98819832 0.09809658 18.01017335
v 9.98819832 0.09809658 18.01017335
v 9.98819832 0.09809658 18.01017335
v 5.48653972 0.28474835 19.86872177
v 5.48653972 0.28474835 19.86872177
v 5.48653972 0.28474835 19.86872177
v 5.48653972 0.28474835 19.86872177
v 5.97067933 2.32204358 19.39675647
v 5.97067933 2.32204358 19.39675647
v 5.97067933 2.32204358 19.39675647
v 5.97067933 2.32204358 19.39675647
v 5.97067933 2.32204358 19.39675647
v 5.97067933 2.32204358 19.39675647
v 5.97067933 2.32204358 19.39675647
v 9.75740889 1.78535018 17.82510916
v 9.75740889 1.78535018 17.82510916
v 9.75740889 1.78535018 17.82510916
v 9.75740889 1.78535018 17.82510916
v 9.75740889 1.78535018 17.82510916
v 15.71292283 0.45701500 13.32725039
v 15.71292283 0.45701500 13.32725039
v 15.71292283 0.45701500 13.32725039
v 15.71292283 0.45701500 13.32725039
v 15.71292283 0.45701500 13.32725039
v 15.71292283 0.45701500 13.32725039
v 1.24332176 2.50337284 20.01625281
v 1.24332176 2.50337284 20.01625281
v 1.24332176 2.50337284 20.01625281
v 1.24332176 2.50337284 20.01625281
v 8.21256542 1.86806202 15.57111663
v 8.21256542 1.86806202 15.57111663
v 8.21256542 1.86806202 15.57111663
v 8.21256542 1.86806202 15.57111663
v 8.21256542 1.86806202 15.57111663
v 8.21256542 1.86806202 15.57111663
v 8.78033810 -1.90369421 9.01952250
v 8.78033810 -1.90369421 9.01952250
v 8.78033810 -1.90369421 9.01952250
v 2.70498717 -1.04845079 12.74362446
v 2.70498717 -1.04845079 12.74362446
v 2.70498717 -1.04845079 12.74362446
v 20.94832935 2.80798522 2.88004190
v 20.94832935 2.80798522 2.88004190
v 20.94832935 2.80798522 2.88004190
v 20.94832935 2.80798522 2.88004190
v 20.94832935 2.80798522 2.88004190
v 20.94832935 2.80798522 2.88004190
v 20.35358458 2.97256975 5.12011361
v 20.35358458 2.97256975 5.12011361
v 20.35358458 2.97256975 5.12011361
v 20.35358458 2.97256975 5.12011361
v 20.35358458 2.97256975 5.12011361
v 19.95097629 4.88823003 5.64933195
v 19.95097629 4.88823003 5.64933195
v 19.95097629 4.88823003 5.64933195
v 19.95097629 4.88823003 5.64933195
v 19.95097629 4.88823003 5.64933195
v 20.82719141 5.37720159 1.84730233
v 20.82719141 5.37720159 1.84730233
v 20.82719141 5.37720159 1.84730233
v 20.82719141 5.37720159 1.84730233
v 20.82719141 5.37720159 1.84730233
v 20.82719141 5.37720159 1.84730233
v 19.03086834 6.11971135 5.75261740
v 19.03086834 6.11971135 5.75261740
v 19.03086834 6.11971135 5.75261740
v 19.03086834 6.11971135 5.75261740
v 19.03086834 6.11971135 5.75261740
v 19.03086834 6.11971135 5.75261740
v 19.03086834 6.11971135 5.75261740
v 20.15459074 5.94942165 0.67396345
v 20.15459074 5.94942165 0.67396345
v 20.15459074 5.94942165 0.67396345
v 20.15459074 5.94942165 0.67396345
v 20.15459074 5.94942165 0.67396345
v 20.15459074 5.94942165 0.67396345
v 17.73784946 -1.42704584 10.46720833
v 17.73784946 -1.42704584 10.46720833
v 17.73784946 -1.42704584 10.46720833
v 17.73784946 -1.42704584 10.46720833
v 14.12245522 5.00626616 10.81405276
v 14.12245522 5.00626616 10.81405276
v 14.12245522 5.00626616 10.81405276
v 14.12245522 5.00626616 10.81405276
v 14.12245522 5.00626616 10.81405276
v 14.12245522 5.00626616 10.81405276
v 14.12245522 5.00626616 10.81405276
v 15.16007165 4.58419334 11.91439859
v 15.16007165 4.58419334 11.91439859
v 15.16007165 4.58419334 11.91439859
v 15.16007165 4.58419334 11.91439859
v 15.16007165 4.58419334 11.91439859
v 15.16007165 4.58419334 11.91439859
v 11.32014869 4.08959212 14.90517397
v 11.32014869 4.08959212 14.90517397
v 11.32014869 4.08959212 14.90517397
v 11.32014869 4.08959212 14.90517397
v 16.38572569 3.66828293 7.32717061
v 16.38572569 3.66828293 7.32717061
v 16.38572569 3.66828293 7.32717061
v 16.38572569 3.66828293 7.32717061
v 16.38572569 3.66828293 7.32717061
v 16.38572569 3.66828293 7.32717061
v 16.38572569 3.66828293 7.32717061
v 19.15785272 5.41855008 3.60490176
v 19.15785272 5.41855008 3.60490176
v 19.15785272 5.41855008 3.60490176
v 19.15785272 5.41855008 3.60490176
v 19.15785272 5.41855008 3.60490176
v 19.15785272 5.41855008 3.60490176
v 13.12959409 2.00216515 9.65158763
v 13.12959409 2.00216515 9.65158763
v 13.12959409 2.00216515 9.65158763
v 13.12959409 2.00216515 9.65158763
v 13.12959409 2.00216515 9.65158763
v 12.56194088 -0.39537404 5.60004018
v 12.56194088 -0.39537404 5.60004018
v 12.56194088 -0.39537404 5.60004018
v 12.56194088 -0.39537404 5.60004018
v 15.70392483 1.78716804 7.93613629
v 15.70392483 1.78716804 7.93613629
v 15.70392483 1.78716804 7.93613629
v 15.70392483 1.78716804 7.93613629
v 15.70392483 1.78716804 7.93613629
v 15.70392483 1.78716804 7.93613629
v 15.70392483 1.78716804 7.93613629
v 12.02284262 -1.51882288 6.69601603
v 12.02284262 -1.51882288 6.69601603
v 10.40868102 -1.73121003 7.96139475
v 10.40868102 -1.73121003 7.96139475
v 10.40868102 -1.73121003 7.96139475
v 12.81878974 -0.37384749 6.14350489
v 12.81878974 -0.37384749 6.14350489
v 10.55892461 -1.27290075 2.14057655
v 10.55892461 -1.27290075 2.14057655
v 10.55892461 -1.27290075 2.14057655
v 10.55892461 -1.27290075 2.14057655
v 18.56786711 2.49043311 0.18620439
v 18.56786711 2.49043311 0.18620439
v 18.56786711 2.49043311 0.18620439
v 18.56786711 2.49043311 0.18620439
v 19.47655223 3.18458382 -8.48336301
v 19.47655223 3.18458382 -8.48336301
v 19.47655223 3.18458382 -8.48336301
v 19.47655223 3.18458382 -8.48336301
v 19.47655223 3.18458382 -8.48336301
v 19.47655223 3.18458382 -8.48336301
v 19.47655223 3.18458382 -8.48336301
v 15.92976988 1.09982786 -7.11964393
v 15.92976988 1.09982786 -7.11964393
v 15.92976988 1.09982786 -7.11964393
v 15.92976988 1.09982786 -7.11964393
v 15.92976988 1.09982786 -7.11964393
v 15.92976988 1.09982786 -7.11964393
v -13.65055354 5.28320965 -13.50787214
v -13.65055354 5.28320965 -13.50787214
v -13.65055354 5.28320965 -13.50787214
v -13.65055354 5.28320965 -13.50787214
v -13.65055354 5.28320965 -13.50787214
v -13.65055354 5.28320965 -13.50787214
v -13.65055354 5.28320965 -13.50787214
v -3.19242415 -0.47512511 -11.40255167
v -3.19242415 -0.47512511 -11.40255167
v -3.19242415 -0.47512511 -11.40255167
v -3.19242415 -0.47512511 -11.40255167
v -12.32987047 6.20635037 -12.54415979
v -12.32987047 6.20635037 -12.54415979
v -12.32987047 6.20635037 -12.54415979
v -12.32987047 6.20635037 -12.54415979
v -12.32987047 6.20635037 -12.54415979
v -12.32987047 6.20635037 -12.54415979
v -19.99179674 1.92298787 -3.79369474
v -19.99179674 1.92298787 -3.79369474
v -19.99179674 1.92298787 -3.79369474
v -19.99179674 1.92298787 -3.79369474
v -19.99179674 1.92298787 -3.79369474
v -19.99179674 1.92298787 -3.79369474
v -19.99179674 1.92298787 -3.79369474
v -18.05057670 2.75477457 -8.38084319
v -18.05057670 2.75477457 -8.38084319
v -18.05057670 2.75477457 -8.38084319
v -18.05057670 2.75477457 -8.38084319
v -18.05057670 2.75477457 -8.38084319
v -16.42744820 2.06268418 -11.83198572
v -16.42744820 2.06268418 -11.83198572
v -16.42744820 2.06268418 -11.83198572
v -16.42744820 2.06268418 -11.83198572
v -16.42744820 2.06268418 -11.83198572
v -16.42744820 2.06268418 -11.83198572
v -16.42744820 2.06268418 -11.83198572
v -17.44079661 3.94776677 -3.59288192
v -17.44079661 3.94776677 -3.59288192
v -17.44079661 3.94776677 -3.59288192
v -17.44079661 3.94776677 -3.59288192
v -17.44079661 3.94776677 -3.59288192
v -17.44079661 3.94776677 -3.59288192
v -17.44079661 3.94776677 -3.59288192
v -17.44079661 3.94776677 -3.59288192
v -17.44079661 3.94776677 -3.59288192
v -15.99166013 4.92459116 10.79438130
v -15.99166013 4.92459116 10.79438130
v -15.99166013 4.92459116 10.79438130
v -15.99166013 4.92459116 10.79438130
v -15.99166013 4.92459116 10.79438130
v -15.99166013 4.92459116 10.79438130
v -15.99166013 4.92459116 10.79438130
v -18.02900921 4.13778827 2.56793783
v -18.02900921 4.13778827 2.56793783
v -18.02900921 4.13778827 2.56793783
v -18.02900921 4.13778827 2.56793783
v -18.02900921 4.13778827 2.56793783
v -18.02900921 4.13778827 2.56793783
v -14.65863662 0.82291704 3.18894139
v -14.65863662 0.82291704 3.18894139
v -14.65863662 0.82291704 3.18894139
v -14.65863662 0.82291704 3.18894139
v -3.30652622 1.74791169 16.88456765
v -3.30652622 1.74791169 16.88456765
v -3.30652622 1.74791169 16.88456765
v -3.30652622 1.74791169 16.88456765
v 13.44905993 2.34350543 15.03719462
v 13.44905993 2.34350543 15.03719462
v 13.44905993 2.34350543 15.03719462
v 13.44905993 2.34350543 15.03719462
v 13.44905993 2.34350543 15.03719462
v 13.44905993 2.34350543 15.03719462
v 9.01363859 3.31545574 17.30315574
v 9.01363859 3.31545574 17.30315574
v 9.01363859 3.31545574 17.30315574
v 9.01363859 3.31545574 17.30315574
v 9.01363859 3.31545574 17.30315574
v 9.01363859 3.31545574 17.30315574
v 9.01363859 3.31545574 17.30315574
v 9.01363859 3.31545574 17.30315574
v 10.87511518 1.16777935 10.89949208
v 10.87511518 1.16777935 10.89949208
v 10.87511518 1.16777935 10.89949208
v 10.87511518 1.16777935 10.89949208
v 10.87511518 1.16777935 10.89949208
v 18.21154819 2.95398764 8.99908541
v 18.21154819 2.95398764 8.99908541
v 18.21154819 2.95398764 8.99908541
v 18.21154819 2.95398764 8.99908541
v 18.21154819 2.95398764 8.99908541
v 18.21154819 2.95398764 8.99908541
v 17.57814340 4.28009683 8.82425921
v 17.57814340 4.28009683 8.82425921
v 17.57814340 4.28009683 8.82425921
v 17.57814340 4.28009683 8.82425921
v 17.57814340 4.28009683 8.82425921
v 17.57814340 4.28009683 8.82425921
v 19.26734444 3.71511260 -3.35001680
v 19.26734444 3.71511260 -3.35001680
v 19.26734444 3.71511260 -3.35001680
v 19.26734444 3.71511260 -3.35001680
v 19.26734444 3.71511260 -3.35001680
v 19.26734444 3.71511260 -3.35001680
v 19.26734444 3.71511260 -3.35001680
v 16.21936445 3.45198701 11.67302195
v 16.21936445 3.45198701 11.67302195
v 16.21936445 3.45198701 11.67302195
v 16.21936445 3.45198701 11.67302195
v 16.21936445 3.45198701 11.67302195
v -0.00000008 0.00000310 -17.32576702
v 3.38008950 0.00000310 -16.99285674
v 6.63028440 0.00000310 -16.00692104
v 9.62568062 0.00000310 -14.40584849
v 12.25116714 0.00000310 -12.25116714
v 14.40584849 0.00000310 -9.62568062
v 16.00692104 0.00000310 -6.63028440
v 16.99285674 0.00000310 -3.38008950
v 17.32576702 0.00000310 0.00000000
v 16.99285674 0.00000310 3.38008950
v 16.00692104 0.00000310 6.63028440
v 14.40584849 0.00000310 9.62568062
v 12.25116714 0.00000310 12.25116714
v 9.62568062 0.00000310 14.40584849
v 6.63028440 0.00000310 16.00692104
v 3.38008950 0.00000310 16.99285674
v -0.00000008 0.00000310 17.32576702
v -3.38008950 0.00000310 16.99285674
v -6.63028440 0.00000310 16.00692104
v -9.62568062 0.00000310 14.40584849
v -12.25116714 0.00000310 12.25116714
v -14.40584849 0.00000310 9.62568062
v -16.00692104 0.00000310 6.63028440
v -16.99285674 0.00000310 3.38008950
v -17.32576702 0.00000310 0.00000000
v -16.99285674 0.00000310 -3.38008950
v -16.00692104 0.00000310 -6.63028440
v -14.40584849 0.00000310 -9.62568062
v -12.25116714 0.00000310 -12.25116714
v -9.62568062 0.00000310 -14.40584849
v -6.63028440 0.00000310 -16.00692104
v -3.38008950 0.00000310 -16.99285674
vt 0.43221306 0.27404025
vt 0.43221306 0.27404025
vt 0.43221306 0.27404025
vt 0.41624186 0.16631394
vt 0.41624186 0.16631394
vt 0.41624186 0.16631394
vt 0.41624186 0.16631394
vt 0.31446817 0.25022710
vt 0.31446817 0.25022710
vt 0.31446817 0.25022710
vt 0.31446817 0.25022710
vt 0.31446817 0.25022710
vt 0.44018217 0.24805605
vt 0.44018217 0.24805605
vt 0.43225926 0.22177531
vt 0.43225926 0.22177531
vt 0.41498060 0.36237308
vt 0.41498060 0.36237308
vt 0.39371139 0.13663808
vt 0.39371139 0.13663808
vt 0.39371139 0.13663808
vt 0.38082476 0.12950841
vt 0.38082476 0.12950841
vt 0.38082476 0.12950841
vt 0.37882684 0.44944795
vt 0.37882684 0.44944795
vt 0.37882684 0.44944795
vt 0.37882684 0.44944795
vt 0.37882684 0.44944795
vt 0.37599593 0.38994214
vt 0.37599593 0.38994214
vt 0.27462815 0.23651487
vt 0.27462815 0.23651487
vt 0.27462815 0.23651487
vt 0.27462815 0.23651487
vt 0.27462815 0.23651487
vt 0.27462815 0.23651487
vt 0.31974073 0.30695026
vt 0.31974073 0.30695026
vt 0.31974073 0.30695026
vt 0.31974073 0.30695026
vt 0.27647856 0.09091251
vt 0.27647856 0.09091251
vt 0.29182540 0.05781202
vt 0.29182540 0.05781202
vt 0.32210457 0.33147042
vt 0.29182540 0.05781202
vt 0.29182540 0.05781202
vt 0.29182540 0.05781202
vt 0.32153760 0.15117344
vt 0.32153760 0.15117344
vt 0.32153760 0.15117344
vt 0.40606524 0.01823000
vt 0.40606524 0.01823000
vt 0.40606524 0.01823000
vt 0.40606524 0.01823000
vt 0.40606524 0.01823000
vt 0.40606524 0.01823000
vt 0.40606524 0.01823000
vt 0.40606524 0.01823000
vt 0.43191304 0.06919124
vt 0.43191304 0.06919124
vt 0.43191304 0.06919124
vt 0.43191304 0.06919124
vt 0.43191304 0.06919124
vt 0.32314230 0.35549461
vt 0.32314230 0.35549461
vt 0.32314230 0.35549461
vt 0.32314230 0.35549461
vt 0.35230149 0.35519527
vt 0.35230149 0.35519527
vt 0.30419986 0.06232659
vt 0.30419986 0.06232659
vt 0.30419986 0.06232659
vt 0.30419986 0.06232659
vt 0.30419986 0.06232659
vt 0.48523309 0.36412609
vt 0.48523309 0.36412609
vt 0.48523309 0.36412609
vt 0.48523309 0.36412609
vt 0.43758089 0.20334130
vt 0.48523309 0.36412609
vt 0.42945747 0.32771254
vt 0.42945747 0.32771254
vt 0.42945747 0.32771254
vt 0.42945747 0.32771254
vt 0.32652960 0.42551276
vt 0.32652960 0.42551276
vt 0.32652960 0.42551276
vt 0.32652960 0.42551276
vt 0.32652960 0.42551276
vt 0.32652960 0.42551276
vt 0.32652960 0.42551276
vt 0.33882410 0.37689969
vt 0.33882410 0.37689969
vt 0.28609494 0.14950449
vt 0.28609494 0.14950449
vt 0.28609494 0.14950449
vt 0.28609494 0.14950449
vt 0.28609494 0.14950449
vt 0.34808626 0.02405333
vt 0.34808626 0.02405333
vt 0.34808626 0.02405333
vt 0.34808626 0.02405333
vt 0.34808626 0.02405333
vt 0.34808626 0.02405333
vt 0.40435975 0.04937219
vt 0.40435975 0.04937219
vt 0.40435975 0.04937219
vt 0.40435975 0.04937219
vt 0.40435975 0.04937219
vt 0.40435975 0.04937219
vt 0.40435975 0.04937219
vt 0.41221445 0.08474251
vt 0.41221445 0.08474251
vt 0.41221445 0.08474251
vt 0.41221445 0.08474251
vt 0.41221445 0.08474251
vt 0.39869506 0.12520003
vt 0.39869506 0.12520003
vt 0.39869506 0.12520003
vt 0.39869506 0.12520003
vt 0.46905006 0.18740404
vt 0.46905006 0.18740404
vt 0.46905006 0.18740404
vt 0.46905006 0.18740404
vt 0.46905006 0.18740404
vt 0.46905006 0.18740404
vt 0.46905006 0.18740404
vt 0.43367126 0.24036985
vt 0.43367126 0.24036985
vt 0.43367126 0.24036985
vt 0.42371244 0.16691250
vt 0.42371244 0.16691250
vt 0.42371244 0.16691250
vt 0.42371244 0.16691250
vt 0.42371244 0.16691250
vt 0.42371244 0.16691250
vt 0.45455440 0.44146724
vt 0.45455440 0.44146724
vt 0.45455440 0.44146724
vt 0.42536908 0.16345363
vt 0.42536908 0.16345363
vt 0.42536908 0.16345363
vt 0.43625082 0.45906588
vt 0.43625082 0.45906588
vt 0.43625082 0.45906588
vt 0.43625082 0.45906588
vt 0.43625082 0.45906588
vt 0.43314499 0.42585198
vt 0.43314499 0.42585198
vt 0.43314499 0.42585198
vt 0.43314499 0.42585198
vt 0.43314499 0.42585198
vt 0.43314499 0.42585198
vt 0.43030137 0.41231755
vt 0.43030137 0.41231755
vt 0.43030137 0.41231755
vt 0.43030137 0.41231755
vt 0.43030137 0.41231755
vt 0.43030137 0.41231755
vt 0.40537589 0.14875643
vt 0.40537589 0.14875643
vt 0.38014401 0.12405153
vt 0.36596482 0.49735547
vt 0.38014401 0.12405153
vt 0.38014401 0.12405153
vt 0.38014401 0.12405153
vt 0.38014401 0.12405153
vt 0.35489960 0.13584662
vt 0.35489960 0.13584662
vt 0.34669869 0.14456720
vt 0.34669869 0.14456720
vt 0.34669869 0.14456720
vt 0.32315836 0.18725707
vt 0.32315836 0.18725707
vt 0.32315836 0.18725707
vt 0.31666566 0.21409710
vt 0.31666566 0.21409710
vt 0.31666566 0.21409710
vt 0.31666566 0.21409710
vt 0.31014987 0.24558885
vt 0.31014987 0.24558885
vt 0.25094609 0.21888310
vt 0.31014987 0.24558885
vt 0.25094609 0.21888310
vt 0.25094609 0.21888310
vt 0.31749425 0.27728482
vt 0.31749425 0.27728482
vt 0.32296072 0.30038435
vt 0.32296072 0.30038435
vt 0.32296072 0.30038435
vt 0.28654387 0.10021354
vt 0.28654387 0.10021354
vt 0.28654387 0.10021354
vt 0.28654387 0.10021354
vt 0.28654387 0.10021354
vt 0.28654387 0.10021354
vt 0.30023536 0.10972939
vt 0.30023536 0.10972939
vt 0.30023536 0.10972939
vt 0.30023536 0.10972939
vt 0.30023536 0.10972939
vt 0.30023536 0.10972939
vt 0.30555114 0.11824127
vt 0.30555114 0.11824127
vt 0.30555114 0.11824127
vt 0.30555114 0.11824127
vt 0.30555114 0.11824127
vt 0.30555114 0.11824127
vt 0.28235933 0.41720561
vt 0.28235933 0.41720561
vt 0.28235933 0.41720561
vt 0.28235933 0.41720561
vt 0.28235933 0.41720561
vt 0.36771120 0.36737219
vt 0.36771120 0.36737219
vt 0.36771120 0.36737219
vt 0.36771120 0.36737219
vt 0.36771120 0.36737219
vt 0.36771120 0.36737219
vt 0.36771120 0.36737219
vt 0.38061215 0.36302448
vt 0.38061215 0.36302448
vt 0.38061215 0.36302448
vt 0.38061215 0.36302448
vt 0.39799204 0.35534654
vt 0.39799204 0.35534654
vt 0.39799204 0.35534654
vt 0.40846104 0.34277538
vt 0.40846104 0.34277538
vt 0.40846104 0.34277538
vt 0.44970082 0.11605426
vt 0.44970082 0.11605426
vt 0.44970082 0.11605426
vt 0.44970082 0.11605426
vt 0.44970082 0.11605426
vt 0.44970082 0.11605426
vt 0.44970082 0.11605426
vt 0.44970082 0.11605426
vt 0.47676761 0.37216251
vt 0.47676761 0.37216251
vt 0.47676761 0.37216251
vt 0.47676761 0.37216251
vt 0.47676761 0.37216251
vt 0.47676761 0.37216251
vt 0.38403309 0.03740659
vt 0.38403309 0.03740659
vt 0.38403309 0.03740659
vt 0.38403309 0.03740659
vt 0.30332545 0.40679892
vt 0.30332545 0.40679892
vt 0.30332545 0.40679892
vt 0.30332545 0.40679892
vt 0.30332545 0.40679892
vt 0.29785139 0.37351755
vt 0.29785139 0.37351755
vt 0.29785139 0.37351755
vt 0.29785139 0.37351755
vt 0.29785139 0.37351755
vt 0.33211241 0.32618562
vt 0.33211241 0.32618562
vt 0.33211241 0.32618562
vt 0.34354547 0.34744956
vt 0.34354547 0.34744956
vt 0.34354547 0.34744956
vt 0.34354547 0.34744956
vt 0.34354547 0.34744956
vt 0.36528060 0.02114464
vt 0.36528060 0.02114464
vt 0.36528060 0.02114464
vt 0.36528060 0.02114464
vt 0.36528060 0.02114464
vt 0.36528060 0.02114464
vt 0.42627231 0.30324689
vt 0.42627231 0.30324689
vt 0.42627231 0.30324689
vt 0.47327614 0.14436860
vt 0.47327614 0.14436860
vt 0.47327614 0.14436860
vt 0.47327614 0.14436860
vt 0.42476298 0.18781049
vt 0.42476298 0.18781049
vt 0.42476298 0.18781049
vt 0.43746442 0.22728277
vt 0.43746442 0.22728277
vt 0.43746442 0.22728277
vt 0.43746442 0.22728277
vt 0.43746442 0.22728277
vt 0.43746442 0.22728277
vt 0.42934933 0.20457431
vt 0.42934933 0.20457431
vt 0.42934933 0.20457431
vt 0.42407147 0.17605868
vt 0.42407147 0.17605868
vt 0.42407147 0.17605868
vt 0.42407147 0.17605868
vt 0.42407147 0.17605868
vt 0.49650973 0.30045009
vt 0.44074370 0.23949469
vt 0.44074370 0.23949469
vt 0.44074370 0.23949469
vt 0.44074370 0.23949469
vt 0.44074370 0.23949469
vt 0.49692888 0.31449306
vt 0.49692888 0.31449306
vt 0.49692888 0.31449306
vt 0.49692888 0.31449306
vt 0.49692888 0.31449306
vt 0.44125410 0.23165848
vt 0.44125410 0.23165848
vt 0.46853083 0.40218366
vt 0.46853083 0.40218366
vt 0.43049992 0.18505503
vt 0.43049992 0.18505503
vt 0.43049992 0.18505503
vt 0.43049992 0.18505503
vt 0.49352827 0.30959297
vt 0.49352827 0.30959297
vt 0.49352827 0.30959297
vt 0.49352827 0.30959297
vt 0.49352827 0.30959297
vt 0.49352827 0.30959297
vt 0.46688107 0.30509010
vt 0.46688107 0.30509010
vt 0.46688107 0.30509010
vt 0.46688107 0.30509010
vt 0.46688107 0.30509010
vt 0.45404568 0.36186347
vt 0.45404568 0.36186347
vt 0.45404568 0.36186347
vt 0.45404568 0.36186347
vt 0.45404568 0.36186347
vt 0.45404568 0.36186347
vt 0.43880857 0.28747072
vt 0.43880857 0.28747072
vt 0.43880857 0.28747072
vt 0.43880857 0.28747072
vt 0.47938970 0.32050408
vt 0.47938970 0.32050408
vt 0.47938970 0.32050408
vt 0.47938970 0.32050408
vt 0.47938970 0.32050408
vt 0.46189205 0.40937556
vt 0.46189205 0.40937556
vt 0.46189205 0.40937556
vt 0.46189205 0.40937556
vt 0.46189205 0.40937556
vt 0.46189205 0.40937556
vt 0.46189205 0.40937556
vt 0.46858246 0.24649529
vt 0.46858246 0.24649529
vt 0.46858246 0.24649529
vt 0.46858246 0.24649529
vt 0.46858246 0.24649529
vt 0.46858246 0.24649529
vt 0.46858246 0.24649529
vt 0.40856981 0.14732001
vt 0.40856981 0.14732001
vt 0.40856981 0.14732001
vt 0.40856981 0.14732001
vt 0.40856981 0.14732001
vt 0.40856981 0.14732001
vt 0.38996453 0.49727165
vt 0.39379996 0.12552897
vt 0.39379996 0.12552897
vt 0.38996453 0.49727165
vt 0.39379996 0.12552897
vt 0.42678232 0.47527558
vt 0.41100961 0.14459216
vt 0.41100961 0.14459216
vt 0.41100961 0.14459216
vt 0.41100961 0.14459216
vt 0.41100961 0.14459216
vt 0.41100961 0.14459216
vt 0.42653529 0.47642724
vt 0.42653529 0.47642724
vt 0.42653529 0.47642724
vt 0.41243291 0.14104658
vt 0.41243291 0.14104658
vt 0.40609847 0.48564039
vt 0.40609847 0.48564039
vt 0.40609847 0.48564039
vt 0.40609847 0.48564039
vt 0.40609847 0.48564039
vt 0.40609847 0.48564039
vt 0.40609847 0.48564039
vt 0.40573166 0.12345893
vt 0.42237562 0.47107822
vt 0.42237562 0.47107822
vt 0.42237562 0.47107822
vt 0.42237562 0.47107822
vt 0.42237562 0.47107822
vt 0.42237562 0.47107822
vt 0.39365547 0.13097361
vt 0.39365547 0.13097361
vt 0.39365547 0.13097361
vt 0.39365547 0.13097361
vt 0.39365547 0.13097361
vt 0.39365547 0.13097361
vt 0.37006146 0.50012225
vt 0.37006146 0.50012225
vt 0.37006146 0.50012225
vt 0.38330895 0.11865690
vt 0.40020512 0.47625670
vt 0.40020512 0.47625670
vt 0.40020512 0.47625670
vt 0.40020512 0.47625670
vt 0.40020512 0.47625670
vt 0.38066437 0.46174086
vt 0.38066437 0.46174086
vt 0.38066437 0.46174086
vt 0.38066437 0.46174086
vt 0.38066437 0.46174086
vt 0.38066437 0.46174086
vt 0.41613199 0.43229627
vt 0.41613199 0.43229627
vt 0.41613199 0.43229627
vt 0.41613199 0.43229627
vt 0.41613199 0.43229627
vt 0.41613199 0.43229627
vt 0.41613199 0.43229627
vt 0.39998520 0.45645606
vt 0.39998520 0.45645606
vt 0.39998520 0.45645606
vt 0.39998520 0.45645606
vt 0.39998520 0.45645606
vt 0.39774359 0.44467964
vt 0.39774359 0.44467964
vt 0.39774359 0.44467964
vt 0.39774359 0.44467964
vt 0.39774359 0.44467964
vt 0.39774359 0.44467964
vt 0.37689118 0.44159092
vt 0.37689118 0.44159092
vt 0.37689118 0.44159092
vt 0.37689118 0.44159092
vt 0.37689118 0.44159092
vt 0.37689118 0.44159092
vt 0.40273188 0.38039591
vt 0.40273188 0.38039591
vt 0.40273188 0.38039591
vt 0.40273188 0.38039591
vt 0.38920476 0.39113949
vt 0.38920476 0.39113949
vt 0.38920476 0.39113949
vt 0.36425174 0.13193882
vt 0.36425174 0.13193882
vt 0.36425174 0.13193882
vt 0.35503822 0.12764974
vt 0.32233602 0.47961587
vt 0.35503822 0.12764974
vt 0.35503822 0.12764974
vt 0.35503822 0.12764974
vt 0.32233602 0.47961587
vt 0.35503822 0.12764974
vt 0.35503822 0.12764974
vt 0.33752995 0.14791963
vt 0.33752995 0.14791963
vt 0.33752995 0.14791963
vt 0.33752995 0.14791963
vt 0.33752995 0.14791963
vt 0.29009405 0.43713946
vt 0.33752995 0.14791963
vt 0.30955345 0.46669361
vt 0.34411682 0.12745558
vt 0.30955345 0.46669361
vt 0.30955345 0.46669361
vt 0.30955345 0.46669361
vt 0.33586575 0.48769378
vt 0.33586575 0.48769378
vt 0.36228620 0.11733665
vt 0.33586575 0.48769378
vt 0.33586575 0.48769378
vt 0.33586575 0.48769378
vt 0.33586575 0.48769378
vt 0.29788801 0.44649318
vt 0.29788801 0.44649318
vt 0.29788801 0.44649318
vt 0.29788801 0.44649318
vt 0.37196852 0.11657092
vt 0.37196852 0.11657092
vt 0.35300528 0.49762770
vt 0.37196852 0.11657092
vt 0.35300528 0.49762770
vt 0.35300528 0.49762770
vt 0.35300528 0.49762770
vt 0.35300528 0.49762770
vt 0.37022023 0.12436793
vt 0.37022023 0.12436793
vt 0.37022023 0.12436793
vt 0.37022023 0.12436793
vt 0.35745483 0.46514417
vt 0.35745483 0.46514417
vt 0.35745483 0.46514417
vt 0.35745483 0.46514417
vt 0.35745483 0.46514417
vt 0.35745483 0.46514417
vt 0.35745483 0.46514417
vt 0.31205981 0.44319490
vt 0.31205981 0.44319490
vt 0.31205981 0.44319490
vt 0.31205981 0.44319490
vt 0.31205981 0.44319490
vt 0.31205981 0.44319490
vt 0.32208098 0.43545130
vt 0.32208098 0.43545130
vt 0.32208098 0.43545130
vt 0.32208098 0.43545130
vt 0.32208098 0.43545130
vt 0.34376854 0.44447738
vt 0.34376854 0.44447738
vt 0.34376854 0.44447738
vt 0.34376854 0.44447738
vt 0.34376854 0.44447738
vt 0.34376854 0.44447738
vt 0.29674790 0.37933835
vt 0.29674790 0.37933835
vt 0.29674790 0.37933835
vt 0.29674790 0.37933835
vt 0.29674790 0.37933835
vt 0.33926896 0.45938673
vt 0.33926896 0.45938673
vt 0.33926896 0.45938673
vt 0.33926896 0.45938673
vt 0.33926896 0.45938673
vt 0.36162500 0.39601343
vt 0.36162500 0.39601343
vt 0.36162500 0.39601343
vt 0.35917084 0.45145767
vt 0.35917084 0.45145767
vt 0.35917084 0.45145767
vt 0.35917084 0.45145767
vt 0.35917084 0.45145767
vt 0.32175101 0.18109898
vt 0.32175101 0.18109898
vt 0.32175101 0.18109898
vt 0.32175101 0.18109898
vt 0.32175101 0.18109898
vt 0.32175101 0.18109898
vt 0.32175101 0.18109898
vt 0.33047292 0.16403917
vt 0.33047292 0.16403917
vt 0.33047292 0.16403917
vt 0.33047292 0.16403917
vt 0.25774788 0.31865104
vt 0.25774788 0.31865104
vt 0.25774788 0.31865104
vt 0.25774788 0.31865104
vt 0.25774788 0.31865104
vt 0.25774788 0.31865104
vt 0.25774788 0.31865104
vt 0.25550435 0.27456904
vt 0.25550435 0.27456904
vt 0.25550435 0.27456904
vt 0.25550435 0.27456904
vt 0.25550435 0.27456904
vt 0.25550435 0.27456904
vt 0.27192429 0.38464760
vt 0.27192429 0.38464760
vt 0.27192429 0.38464760
vt 0.27192429 0.38464760
vt 0.27192429 0.38464760
vt 0.31815853 0.19831959
vt 0.31815853 0.19831959
vt 0.31815853 0.19831959
vt 0.31815853 0.19831959
vt 0.31078616 0.21935089
vt 0.31078616 0.21935089
vt 0.25082404 0.27695013
vt 0.25082404 0.27695013
vt 0.25082404 0.27695013
vt 0.33307208 0.16355101
vt 0.33307208 0.16355101
vt 0.33307208 0.16355101
vt 0.33307208 0.16355101
vt 0.27835469 0.35035905
vt 0.27835469 0.35035905
vt 0.27835469 0.35035905
vt 0.27835469 0.35035905
vt 0.27835469 0.35035905
vt 0.26631582 0.23087709
vt 0.26631582 0.23087709
vt 0.26631582 0.23087709
vt 0.26631582 0.23087709
vt 0.26631582 0.23087709
vt 0.26631582 0.23087709
vt 0.27271039 0.28773297
vt 0.27271039 0.28773297
vt 0.27271039 0.28773297
vt 0.27271039 0.28773297
vt 0.27271039 0.28773297
vt 0.27611133 0.31740832
vt 0.27611133 0.31740832
vt 0.27611133 0.31740832
vt 0.27611133 0.31740832
vt 0.27611133 0.31740832
vt 0.27611133 0.31740832
vt 0.28267625 0.34329771
vt 0.28267625 0.34329771
vt 0.28267625 0.34329771
vt 0.28267625 0.34329771
vt 0.28267625 0.34329771
vt 0.27122874 0.26872009
vt 0.27122874 0.26872009
vt 0.27122874 0.26872009
vt 0.27122874 0.26872009
vt 0.27122874 0.26872009
vt 0.27122874 0.26872009
vt 0.30734681 0.32177456
vt 0.30734681 0.32177456
vt 0.30734681 0.32177456
vt 0.30734681 0.32177456
vt 0.29981353 0.28017424
vt 0.29981353 0.28017424
vt 0.29981353 0.28017424
vt 0.27468955 0.35804817
vt 0.27468955 0.35804817
vt 0.27468955 0.35804817
vt 0.27468955 0.35804817
vt 0.27468955 0.35804817
vt 0.27468955 0.35804817
vt 0.27468955 0.35804817
vt 0.29755967 0.26018947
vt 0.29755967 0.26018947
vt 0.29755967 0.26018947
vt 0.29187281 0.37928780
vt 0.29187281 0.37928780
vt 0.29187281 0.37928780
vt 0.29187281 0.37928780
vt 0.29187281 0.37928780
vt 0.29187281 0.37928780
vt 0.29187281 0.37928780
vt 0.32411148 0.31073715
vt 0.32411148 0.31073715
vt 0.32411148 0.31073715
vt 0.32411148 0.31073715
vt 0.32411148 0.31073715
vt 0.32411148 0.31073715
vt 0.31659283 0.28319394
vt 0.31659283 0.28319394
vt 0.31659283 0.28319394
vt 0.31659283 0.28319394
vt 0.31659283 0.28319394
vt 0.31659283 0.28319394
vt 0.31659283 0.28319394
vt 0.31259923 0.26304969
vt 0.31259923 0.26304969
vt 0.31259923 0.26304969
vt 0.31259923 0.26304969
vt 0.31259923 0.26304969
vt 0.25570145 0.17979034
vt 0.31361705 0.28219477
vt 0.31361705 0.28219477
vt 0.31361705 0.28219477
vt 0.31361705 0.28219477
vt 0.26132126 0.14107566
vt 0.31080614 0.27760915
vt 0.25833473 0.15110561
vt 0.25833473 0.15110561
vt 0.25833473 0.15110561
vt 0.25833473 0.15110561
vt 0.25833473 0.15110561
vt 0.25833473 0.15110561
vt 0.25932421 0.15821488
vt 0.25932421 0.15821488
vt 0.25932421 0.15821488
vt 0.25932421 0.15821488
vt 0.26980622 0.12675709
vt 0.26980622 0.12675709
vt 0.26980622 0.12675709
vt 0.26980622 0.12675709
vt 0.26980622 0.12675709
vt 0.26980622 0.12675709
vt 0.26980622 0.12675709
vt 0.31277384 0.24457928
vt 0.31277384 0.24457928
vt 0.31277384 0.24457928
vt 0.31277384 0.24457928
vt 0.31255574 0.23428076
vt 0.31255574 0.23428076
vt 0.31255574 0.23428076
vt 0.31255574 0.23428076
vt 0.31255574 0.23428076
vt 0.31255574 0.23428076
vt 0.27664616 0.17228174
vt 0.27664616 0.17228174
vt 0.27664616 0.17228174
vt 0.27664616 0.17228174
vt 0.27664616 0.17228174
vt 0.27664616 0.17228174
vt 0.28627646 0.17894264
vt 0.28627646 0.17894264
vt 0.28627646 0.17894264
vt 0.28627646 0.17894264
vt 0.28627646 0.17894264
vt 0.28627646 0.17894264
vt 0.29323295 0.14216690
vt 0.29323295 0.14216690
vt 0.29323295 0.14216690
vt 0.29323295 0.14216690
vt 0.29323295 0.14216690
vt 0.29070904 0.15859396
vt 0.29070904 0.15859396
vt 0.29070904 0.15859396
vt 0.29070904 0.15859396
vt 0.29070904 0.15859396
vt 0.29070904 0.15859396
vt 0.29070904 0.15859396
vt 0.30939321 0.21937096
vt 0.30939321 0.21937096
vt 0.30939321 0.21937096
vt 0.30939321 0.21937096
vt 0.31224893 0.17865269
vt 0.31224893 0.17865269
vt 0.27682346 0.12803466
vt 0.27682346 0.12803466
vt 0.27682346 0.12803466
vt 0.27682346 0.12803466
vt 0.27682346 0.12803466
vt 0.27682346 0.12803466
vt 0.30126172 0.24168412
vt 0.30126172 0.24168412
vt 0.30126172 0.24168412
vt 0.30126172 0.24168412
vt 0.36298932 0.36032631
vt 0.36298932 0.36032631
vt 0.36298932 0.36032631
vt 0.33284603 0.33326790
vt 0.33284603 0.33326790
vt 0.33284603 0.33326790
vt 0.33284603 0.33326790
vt 0.33284603 0.33326790
vt 0.35330913 0.36204866
vt 0.35330913 0.36204866
vt 0.35330913 0.36204866
vt 0.35330913 0.36204866
vt 0.35330913 0.36204866
vt 0.35330913 0.36204866
vt 0.35330913 0.36204866
vt 0.33493529 0.34698147
vt 0.33493529 0.34698147
vt 0.33493529 0.34698147
vt 0.33493529 0.34698147
vt 0.33493529 0.34698147
vt 0.31397796 0.02782711
vt 0.31397796 0.02782711
vt 0.34578159 0.35718659
vt 0.34578159 0.35718659
vt 0.34578159 0.35718659
vt 0.34578159 0.35718659
vt 0.35419150 0.36908224
vt 0.35200422 0.00261132
vt 0.35419150 0.36908224
vt 0.35419150 0.36908224
vt 0.35200422 0.00261132
vt 0.35200422 0.00261132
vt 0.35200422 0.00261132
vt 0.35200422 0.00261132
vt 0.34303065 0.36222608
vt 0.33101053 0.01172328
vt 0.34303065 0.36222608
vt 0.34303065 0.36222608
vt 0.33101053 0.01172328
vt 0.32647331 0.32614981
vt 0.32647331 0.32614981
vt 0.29346156 0.05582544
vt 0.32647331 0.32614981
vt 0.32647331 0.32614981
vt 0.32040790 0.09538139
vt 0.32040790 0.09538139
vt 0.32040790 0.09538139
vt 0.32040790 0.09538139
vt 0.32040790 0.09538139
vt 0.32040790 0.09538139
vt 0.32040790 0.09538139
vt 0.36420719 0.04285447
vt 0.36420719 0.04285447
vt 0.36420719 0.04285447
vt 0.36420719 0.04285447
vt 0.36420719 0.04285447
vt 0.36420719 0.04285447
vt 0.36420719 0.04285447
vt 0.36420719 0.04285447
vt 0.34107769 0.04972082
vt 0.34107769 0.04972082
vt 0.34107769 0.04972082
vt 0.34107769 0.04972082
vt 0.34107769 0.04972082
vt 0.34107769 0.04972082
vt 0.34107769 0.04972082
vt 0.34151623 0.11751961
vt 0.34151623 0.11751961
vt 0.34894124 0.10704259
vt 0.34894124 0.10704259
vt 0.34894124 0.10704259
vt 0.34894124 0.10704259
vt 0.31455038 0.07748678
vt 0.31455038 0.07748678
vt 0.31455038 0.07748678
vt 0.31455038 0.07748678
vt 0.31455038 0.07748678
vt 0.31455038 0.07748678
vt 0.32480407 0.03512193
vt 0.32480407 0.03512193
vt 0.32480407 0.03512193
vt 0.32480407 0.03512193
vt 0.32480407 0.03512193
vt 0.32480407 0.03512193
vt 0.32480407 0.03512193
vt 0.33024287 0.04439486
vt 0.33024287 0.04439486
vt 0.33024287 0.04439486
vt 0.33024287 0.04439486
vt 0.33024287 0.04439486
vt 0.36872438 0.09922324
vt 0.36872438 0.09922324
vt 0.33170802 0.13760544
vt 0.33170802 0.13760544
vt 0.33170802 0.13760544
vt 0.44061774 0.05462997
vt 0.40471533 0.35417594
vt 0.40471533 0.35417594
vt 0.40471533 0.35417594
vt 0.40471533 0.35417594
vt 0.40471533 0.35417594
vt 0.39592341 0.36092814
vt 0.42531687 0.03645862
vt 0.39592341 0.36092814
vt 0.39592341 0.36092814
vt 0.39592341 0.36092814
vt 0.39592341 0.36092814
vt 0.38062444 0.36727031
vt 0.38062444 0.36727031
vt 0.38062444 0.36727031
vt 0.38062444 0.36727031
vt 0.40437447 0.00914666
vt 0.38262280 0.37283592
vt 0.38262280 0.37283592
vt 0.40437447 0.00914666
vt 0.40437447 0.00914666
vt 0.38262280 0.37283592
vt 0.40437447 0.00914666
vt 0.42605390 0.03117770
vt 0.42605390 0.03117770
vt 0.42605390 0.03117770
vt 0.42605390 0.03117770
vt 0.39667268 0.36532589
vt 0.45830083 0.09097185
vt 0.41481084 0.33839455
vt 0.41481084 0.33839455
vt 0.41481084 0.33839455
vt 0.41481084 0.33839455
vt 0.41481084 0.33839455
vt 0.36744288 0.37272624
vt 0.37650718 0.00061041
vt 0.37650718 0.00061041
vt 0.36744288 0.37272624
vt 0.41712066 0.05856541
vt 0.41712066 0.05856541
vt 0.41712066 0.05856541
vt 0.41712066 0.05856541
vt 0.41712066 0.05856541
vt 0.41712066 0.05856541
vt 0.41645456 0.14765399
vt 0.41645456 0.14765399
vt 0.41645456 0.14765399
vt 0.38376220 0.10255563
vt 0.38376220 0.10255563
vt 0.38376220 0.10255563
vt 0.43731575 0.28373590
vt 0.49410167 0.21409597
vt 0.43731575 0.28373590
vt 0.43731575 0.28373590
vt 0.43731575 0.28373590
vt 0.43731575 0.28373590
vt 0.43429424 0.29753801
vt 0.49098687 0.18571841
vt 0.43429424 0.29753801
vt 0.43429424 0.29753801
vt 0.43429424 0.29753801
vt 0.49373485 0.17582062
vt 0.49373485 0.17582062
vt 0.49373485 0.17582062
vt 0.49373485 0.17582062
vt 0.43590219 0.30347274
vt 0.50057996 0.22539816
vt 0.50057996 0.22539816
vt 0.50057996 0.22539816
vt 0.50057996 0.22539816
vt 0.50057996 0.22539816
vt 0.44125410 0.27799064
vt 0.49139018 0.17220671
vt 0.49139018 0.17220671
vt 0.49139018 0.17220671
vt 0.49139018 0.17220671
vt 0.49139018 0.17220671
vt 0.49139018 0.17220671
vt 0.49139018 0.17220671
vt 0.49807985 0.24076621
vt 0.49807985 0.24076621
vt 0.49807985 0.24076621
vt 0.49807985 0.24076621
vt 0.49807985 0.24076621
vt 0.49807985 0.24076621
vt 0.42046645 0.32124290
vt 0.42046645 0.32124290
vt 0.42046645 0.32124290
vt 0.42046645 0.32124290
vt 0.45764279 0.10764115
vt 0.45764279 0.10764115
vt 0.45764279 0.10764115
vt 0.45764279 0.10764115
vt 0.45764279 0.10764115
vt 0.45764279 0.10764115
vt 0.45764279 0.10764115
vt 0.46322081 0.09464811
vt 0.46322081 0.09464811
vt 0.46322081 0.09464811
vt 0.46322081 0.09464811
vt 0.46322081 0.09464811
vt 0.46322081 0.09464811
vt 0.43865230 0.05776713
vt 0.43865230 0.05776713
vt 0.43865230 0.05776713
vt 0.43865230 0.05776713
vt 0.46875245 0.15644978
vt 0.46875245 0.15644978
vt 0.46875245 0.15644978
vt 0.46875245 0.15644978
vt 0.46875245 0.15644978
vt 0.46875245 0.15644978
vt 0.46875245 0.15644978
vt 0.49023794 0.20202891
vt 0.49023794 0.20202891
vt 0.49023794 0.20202891
vt 0.49023794 0.20202891
vt 0.49023794 0.20202891
vt 0.49023794 0.20202891
vt 0.44610664 0.13114724
vt 0.44610664 0.13114724
vt 0.44610664 0.13114724
vt 0.44610664 0.13114724
vt 0.44610664 0.13114724
vt 0.43912497 0.18472052
vt 0.43912497 0.18472052
vt 0.43912497 0.18472052
vt 0.43912497 0.18472052
vt 0.46078433 0.15279464
vt 0.46078433 0.15279464
vt 0.46078433 0.15279464
vt 0.46078433 0.15279464
vt 0.46078433 0.15279464
vt 0.46078433 0.15279464
vt 0.46078433 0.15279464
vt 0.43457855 0.17363080
vt 0.43457855 0.17363080
vt 0.42549903 0.15944190
vt 0.42549903 0.15944190
vt 0.42549903 0.15944190
vt 0.44059309 0.17828764
vt 0.44059309 0.17828764
vt 0.42685978 0.22598462
vt 0.42685978 0.22598462
vt 0.42685978 0.22598462
vt 0.42685978 0.22598462
vt 0.47914903 0.24798742
vt 0.47914903 0.24798742
vt 0.47914903 0.24798742
vt 0.47914903 0.24798742
vt 0.43704105 0.20850224
vt 0.48627621 0.35760832
vt 0.43704105 0.20850224
vt 0.43704105 0.20850224
vt 0.43704105 0.20850224
vt 0.43704105 0.20850224
vt 0.43704105 0.20850224
vt 0.46075847 0.33684601
vt 0.46075847 0.33684601
vt 0.46075847 0.33684601
vt 0.46075847 0.33684601
vt 0.46075847 0.33684601
vt 0.46075847 0.33684601
vt 0.33056533 0.14421672
vt 0.28359409 0.42877419
vt 0.33056533 0.14421672
vt 0.28359409 0.42877419
vt 0.28359409 0.42877419
vt 0.28359409 0.42877419
vt 0.28359409 0.42877419
vt 0.35104994 0.38474927
vt 0.35104994 0.38474927
vt 0.35104994 0.38474927
vt 0.35104994 0.38474927
vt 0.29039828 0.41930144
vt 0.29039828 0.41930144
vt 0.29039828 0.41930144
vt 0.29039828 0.41930144
vt 0.29039828 0.41930144
vt 0.29039828 0.41930144
vt 0.31255827 0.20908700
vt 0.31255827 0.20908700
vt 0.31255827 0.20908700
vt 0.31255827 0.20908700
vt 0.31255827 0.20908700
vt 0.25200742 0.29717266
vt 0.25200742 0.29717266
vt 0.31844793 0.18032536
vt 0.31844793 0.18032536
vt 0.26162942 0.35542199
vt 0.26162942 0.35542199
vt 0.26162942 0.35542199
vt 0.32694584 0.16354606
vt 0.32694584 0.16354606
vt 0.32694584 0.16354606
vt 0.32694584 0.16354606
vt 0.27261919 0.39670909
vt 0.27261919 0.39670909
vt 0.27261919 0.39670909
vt 0.26274173 0.29633404
vt 0.26274173 0.29633404
vt 0.26274173 0.29633404
vt 0.26274173 0.29633404
vt 0.26274173 0.29633404
vt 0.26274173 0.29633404
vt 0.26274173 0.29633404
vt 0.26274173 0.29633404
vt 0.26274173 0.29633404
vt 0.31371430 0.30090143
vt 0.26962075 0.10816401
vt 0.26962075 0.10816401
vt 0.26962075 0.10816401
vt 0.26962075 0.10816401
vt 0.26962075 0.10816401
vt 0.26962075 0.10816401
vt 0.25872074 0.21691791
vt 0.25872074 0.21691791
vt 0.25872074 0.21691791
vt 0.25872074 0.21691791
vt 0.25872074 0.21691791
vt 0.25872074 0.21691791
vt 0.28502443 0.21205580
vt 0.28502443 0.21205580
vt 0.28502443 0.21205580
vt 0.28502443 0.21205580
vt 0.34977353 0.04290782
vt 0.34977353 0.04290782
vt 0.34977353 0.04290782
vt 0.34977353 0.04290782
vt 0.44856628 0.06326964
vt 0.44856628 0.06326964
vt 0.44856628 0.06326964
vt 0.44856628 0.06326964
vt 0.44856628 0.06326964
vt 0.40960779 0.35233463
vt 0.42354594 0.03056032
vt 0.42354594 0.03056032
vt 0.42354594 0.03056032
vt 0.42354594 0.03056032
vt 0.42354594 0.03056032
vt 0.42354594 0.03056032
vt 0.42354594 0.03056032
vt 0.42354594 0.03056032
vt 0.43173744 0.11809391
vt 0.43173744 0.11809391
vt 0.43173744 0.11809391
vt 0.43173744 0.11809391
vt 0.43173744 0.11809391
vt 0.47812413 0.13687832
vt 0.47812413 0.13687832
vt 0.42706095 0.32091283
vt 0.42706095 0.32091283
vt 0.42706095 0.32091283
vt 0.47812413 0.13687832
vt 0.47745406 0.13573971
vt 0.47745406 0.13573971
vt 0.47745406 0.13573971
vt 0.47745406 0.13573971
vt 0.47745406 0.13573971
vt 0.47745406 0.13573971
vt 0.48637152 0.29302969
vt 0.48637152 0.29302969
vt 0.48637152 0.29302969
vt 0.48637152 0.29302969
vt 0.48637152 0.29302969
vt 0.48637152 0.29302969
vt 0.48637152 0.29302969
vt 0.46727243 0.10158282
vt 0.46727243 0.10158282
vt 0.46727243 0.10158282
vt 0.46727243 0.10158282
vt 0.42102564 0.33647950
vt 0.06271365 0.24536878
vt 0.07441336 0.24306413
vt 0.08566345 0.23623877
vt 0.09603159 0.22515500
vt 0.10511934 0.21023875
vt 0.11257747 0.19206323
vt 0.11811935 0.17132695
vt 0.12153203 0.14882679
vt 0.12268436 0.12542737
vt 0.12153203 0.10202794
vt 0.11811935 0.07952778
vt 0.11257747 0.05879150
vt 0.10511934 0.04061598
vt 0.09603159 0.02569973
vt 0.08566345 0.01461597
vt 0.07441336 0.00779060
vt 0.06271365 0.00548595
vt 0.05101395 0.00779060
vt 0.03976386 0.01461597
vt 0.02939572 0.02569973
vt 0.02030797 0.04061598
vt 0.01284984 0.05879150
vt 0.00730795 0.07952778
vt 0.00389527 0.10202794
vt 0.00274295 0.12542737
vt 0.00389527 0.14882679
vt 0.00730795 0.17132695
vt 0.01284984 0.19206323
vt 0.02030797 0.21023875
vt 0.02939572 0.22515500
vt 0.03976386 0.23623877
vt 0.05101395 0.24306413
f 288/288 300/300 131/131
f 289/289 977/977 310/310
f 971/971 314/314 81/81
f 79/79 323/323 306/306
f 244/244 342/342 319/319
f 77/77 245/245 321/321
f 347/347 246/246 78/78
f 16/16 291/291 286/286
f 283/283 298/298 974/974
f 136/136 144/144 315/315
f 312/312 141/141 349/349
f 888/888 307/307 905/905
f 3/3 302/302 875/875
f 1083/1083 325/325 351/351
f 978/978 326/326 340/340
f 354/354 335/335 13/13
f 983/983 338/338 328/328
f 159/159 86/86 334/334
f 241/241 330/330 979/979
f 346/346 155/155 332/332
f 970/970 1084/1084 353/353
f 5/5 363/363 135/135
f 358/358 399/399 372/372
f 398/398 368/368 371/371
f 374/374 143/143 133/133
f 373/373 380/380 142/142
f 369/369 367/367 386/386
f 140/140 378/378 149/149
f 393/393 147/147 376/376
f 382/382 394/394 377/377
f 163/163 361/361 4/4
f 21/21 360/360 162/162
f 24/24 397/397 19/19
f 395/395 168/168 366/366
f 381/381 406/406 392/392
f 148/148 348/348 139/139
f 6/6 137/137 294/294
f 414/414 426/426 408/408
f 151/151 416/416 157/157
f 29/29 433/433 427/427
f 27/27 439/439 432/432
f 161/161 441/441 18/18
f 429/429 442/442 421/421
f 437/437 31/31 445/445
f 389/389 152/152 145/145
f 405/405 419/419 391/391
f 527/527 30/30 435/435
f 454/454 489/489 448/448
f 457/457 482/482 490/490
f 455/455 467/467 470/470
f 464/464 986/986 466/466
f 468/468 477/477 471/471
f 478/478 500/500 473/473
f 576/576 460/460 172/172
f 989/989 997/997 502/502
f 492/492 484/484 166/166
f 524/524 506/506 512/512
f 504/504 507/507 525/525
f 510/510 253/253 92/92
f 516/516 534/534 499/499
f 87/87 991/991 511/511
f 532/532 993/993 529/529
f 89/89 68/68 95/95
f 485/485 495/495 411/411
f 503/503 522/522 474/474
f 254/254 520/520 93/93
f 256/256 66/66 517/517
f 410/410 494/494 26/26
f 180/180 1002/1002 564/564
f 539/539 1013/1013 543/543
f 567/567 1004/1004 538/538
f 1005/1005 1008/1008 540/540
f 1017/1017 559/559 211/211
f 573/573 536/536 542/542
f 175/175 565/565 535/535
f 181/181 566/566 176/176
f 9/9 682/682 179/179
f 178/178 681/681 1001/1001
f 186/186 553/553 571/571
f 552/552 1023/1023 620/620
f 550/550 619/619 563/563
f 461/461 1016/1016 984/984
f 575/575 544/544 458/458
f 579/579 601/601 631/631
f 581/581 598/598 603/603
f 608/608 592/592 1026/1026
f 630/630 259/259 519/519
f 633/633 602/602 260/260
f 599/599 611/611 258/258
f 594/594 614/614 613/613
f 622/622 629/629 1000/1000
f 621/621 577/577 628/628
f 623/623 1024/1024 578/578
f 1041/1041 1021/1021 557/557
f 182/182 683/683 678/678
f 650/650 183/183 679/679
f 39/39 655/655 646/646
f 663/663 555/555 187/187
f 661/661 665/665 1036/1036
f 662/662 1032/1032 666/666
f 8/8 676/676 680/680
f 190/190 643/643 189/189
f 43/43 45/45 1031/1031
f 671/671 582/582 1039/1039
f 688/688 34/34 585/585
f 691/691 98/98 695/695
f 201/201 698/698 719/719
f 696/696 1045/1045 37/37
f 100/100 709/709 697/697
f 99/99 702/702 708/708
f 692/692 710/710 1042/1042
f 715/715 712/712 705/705
f 51/51 714/714 703/703
f 1040/1040 583/583 1020/1020
f 675/675 717/717 687/687
f 604/604 723/723 625/625
f 32/32 724/724 606/606
f 267/267 734/734 750/750
f 748/748 743/743 266/266
f 749/749 760/760 745/745
f 751/751 737/737 763/763
f 758/758 807/807 764/764
f 261/261 636/636 192/192
f 262/262 729/729 638/638
f 263/263 264/264 732/732
f 727/727 216/216 739/739
f 48/48 806/806 72/72
f 815/815 106/106 790/790
f 273/273 1046/1046 102/102
f 274/274 783/783 1048/1048
f 803/803 791/791 776/776
f 786/786 796/796 772/772
f 1047/1047 782/782 785/785
f 773/773 793/793 820/820
f 817/817 794/794 781/781
f 74/74 798/798 195/195
f 196/196 800/800 199/199
f 76/76 812/812 799/799
f 809/809 103/103 813/813
f 206/206 819/819 50/50
f 835/835 827/827 842/842
f 838/838 858/858 219/219
f 841/841 844/844 1061/1061
f 1051/1051 1063/1063 845/845
f 1059/1059 60/60 840/840
f 227/227 830/830 226/226
f 225/225 829/829 836/836
f 230/230 824/824 229/229
f 924/924 913/913 65/65
f 55/55 271/271 753/753
f 863/863 116/116 108/108
f 248/248 110/110 778/778
f 109/109 121/121 868/868
f 238/238 115/115 861/861
f 1064/1064 114/114 235/235
f 870/870 816/816 780/780
f 118/118 122/122 112/112
f 1067/1067 119/119 117/117
f 54/54 249/249 270/270
f 862/862 107/107 53/53
f 62/62 860/860 1056/1056
f 247/247 777/777 269/269
f 277/277 874/874 881/881
f 908/908 877/877 1073/1073
f 1071/1071 1092/1092 853/853
f 880/880 873/873 886/886
f 1078/1078 921/921 1088/1088
f 882/882 889/889 898/898
f 1075/1075 896/896 280/280
f 900/900 937/937 893/893
f 906/906 852/852 232/232
f 876/876 304/304 892/892
f 894/894 939/939 930/930
f 895/895 931/931 278/278
f 281/281 915/915 1076/1076
f 1077/1077 916/916 918/918
f 917/917 914/914 925/925
f 951/951 941/941 237/237
f 927/927 123/123 949/949
f 936/936 968/968 125/125
f 954/954 960/960 944/944
f 945/945 963/963 961/961
f 912/912 933/933 240/240
f 935/935 124/124 928/928
f 1081/1081 967/967 934/934
f 969/969 352/352 126/126
f 943/943 958/958 866/866
f 236/236 940/940 1065/1065
f 292/292 284/284 975/975
f 303/303 290/290 311/311
f 287/287 293/293 976/976
f 973/973 296/296 316/316
f 297/297 138/138 317/317
f 972/972 82/82 308/308
f 313/313 350/350 80/80
f 320/320 343/343 1087/1087
f 130/130 15/15 285/285
f 7/7 295/295 282/282
f 242/242 980/980 341/341
f 318/318 1086/1086 902/902
f 903/903 305/305 322/322
f 890/890 299/299 309/309
f 1/1 132/132 301/301
f 982/982 84/84 336/336
f 981/981 333/333 83/83
f 339/339 324/324 1082/1082
f 344/344 331/331 243/243
f 150/150 156/156 329/329
f 158/158 17/17 85/85
f 356/356 327/327 337/337
f 134/134 362/362 375/375
f 370/370 388/388 379/379
f 359/359 20/20 400/400
f 23/23 169/169 396/396
f 365/365 167/167 404/404
f 364/364 403/403 385/385
f 384/384 402/402 487/487
f 153/153 390/390 417/417
f 407/407 424/424 422/422
f 413/413 28/28 425/425
f 423/423 428/428 418/418
f 160/160 420/420 440/440
f 430/430 444/444 443/443
f 431/431 438/438 446/446
f 146/146 154/154 345/345
f 387/387 415/415 409/409
f 383/383 486/486 412/412
f 450/450 173/173 462/462
f 451/451 463/463 465/465
f 456/456 472/472 481/481
f 469/469 990/990 480/480
f 509/509 505/505 999/999
f 509/509 999/999 252/252
f 171/171 453/453 447/447
f 170/170 174/174 452/452
f 479/479 988/988 501/501
f 987/987 214/214 995/995
f 488/488 475/475 496/496
f 165/165 483/483 401/401
f 498/498 526/526 513/513
f 533/533 515/515 994/994
f 514/514 508/508 91/91
f 88/88 94/94 992/992
f 90/90 518/518 69/69
f 497/497 476/476 523/523
f 530/530 434/434 25/25
f 530/530 25/25 493/493
f 531/531 528/528 436/436
f 73/73 193/193 1034/1034
f 73/73 1034/1034 49/49
f 541/541 1009/1009 1015/1015
f 1006/1006 546/546 1010/1010
f 1007/1007 570/570 547/547
f 1019/1019 1011/1011 560/560
f 1012/1012 549/549 562/562
f 548/548 572/572 554/554
f 574/574 177/177 537/537
f 1003/1003 684/684 568/568
f 569/569 685/685 185/185
f 551/551 558/558 1022/1022
f 213/213 561/561 617/617
f 985/985 1018/1018 212/212
f 459/459 545/545 1014/1014
f 580/580 1028/1028 597/597
f 1025/1025 591/591 596/596
f 1027/1027 587/587 609/609
f 257/257 610/610 67/67
f 600/600 593/593 612/612
f 595/595 589/589 616/616
f 605/605 626/626 590/590
f 588/588 624/624 615/615
f 998/998 627/627 251/251
f 215/215 618/618 996/996
f 632/632 521/521 255/255
f 10/10 647/647 677/677
f 12/12 641/641 648/648
f 649/649 642/642 653/653
f 635/635 38/38 645/645
f 651/651 654/654 658/658
f 184/184 652/652 659/659
f 40/40 1029/1029 656/656
f 657/657 1030/1030 660/660
f 11/11 188/188 640/640
f 191/191 634/634 644/644
f 672/672 1035/1035 194/194
f 674/674 197/197 716/716
f 667/667 1033/1033 669/669
f 668/668 670/670 1038/1038
f 556/556 664/664 1037/1037
f 690/690 694/694 36/36
f 720/720 699/699 96/96
f 1044/1044 725/725 33/33
f 700/700 209/209 707/707
f 722/722 1043/1043 711/711
f 706/706 713/713 693/693
f 704/704 207/207 52/52
f 673/673 686/686 584/584
f 689/689 721/721 97/97
f 198/198 200/200 718/718
f 701/701 204/204 210/210
f 586/586 35/35 607/607
f 730/730 766/766 639/639
f 265/265 742/742 733/733
f 768/768 731/731 741/741
f 769/769 744/744 46/46
f 762/762 736/736 752/752
f 47/47 747/747 805/805
f 761/761 804/804 746/746
f 70/70 735/735 268/268
f 71/71 726/726 738/738
f 740/740 217/217 754/754
f 755/755 218/218 855/855
f 756/756 272/272 101/101
f 810/810 759/759 104/104
f 899/899 1079/1079 1069/1069
f 899/899 1069/1069 883/883
f 767/767 44/44 42/42
f 637/637 765/765 41/41
f 801/801 814/814 789/789
f 105/105 1049/1049 788/788
f 795/795 792/792 771/771
f 787/787 784/784 797/797
f 75/75 808/808 811/811
f 205/205 770/770 818/818
f 202/202 802/802 774/774
f 203/203 775/775 208/208
f 834/834 839/839 222/222
f 843/843 828/828 846/846
f 848/848 831/831 822/822
f 821/821 1053/1053 847/847
f 837/837 59/59 857/857
f 1050/1050 920/920 1062/1062
f 1060/1060 919/919 926/926
f 224/224 833/833 221/221
f 728/728 223/223 220/220
f 228/228 823/823 832/832
f 231/231 851/851 826/826
f 850/850 1055/1055 825/825
f 923/923 64/64 1057/1057
f 1058/1058 864/864 56/56
f 856/856 57/57 757/757
f 61/61 234/234 859/859
f 111/111 869/869 779/779
f 1068/1068 867/867 120/120
f 250/250 58/58 113/113
f 63/63 910/910 239/239
f 276/276 879/879 909/909
f 907/907 1072/1072 854/854
f 878/878 884/884 1074/1074
f 885/885 872/872 891/891
f 1070/1070 1080/1080 1090/1090
f 962/962 956/956 952/952
f 962/962 952/952 946/946
f 887/887 904/904 897/897
f 275/275 2/2 871/871
f 901/901 1085/1085 938/938
f 1052/1052 1089/1089 922/922
f 849/849 1091/1091 1054/1054
f 955/955 127/127 947/947
f 491/491 164/164 22/22
f 491/491 22/22 449/449
f 948/948 128/128 964/964
f 129/129 357/357 966/966
f 953/953 957/957 959/959
f 911/911 279/279 932/932
f 233/233 929/929 950/950
f 965/965 355/355 14/14
f 1066/1066 942/942 865/865
f 1095/1095 1094/1094 1093/1093
f 1093/1093 1124/1124 1123/1123
f 1123/1123 1122/1122 1121/1121
f 1121/1121 1120/1120 1119/1119
f 1119/1119 1118/1118 1117/1117
f 1117/1117 1116/1116 1115/1115
f 1115/1115 1114/1114 1113/1113
f 1113/1113 1112/1112 1111/1111
f 1111/1111 1110/1110 1109/1109
f 1109/1109 1108/1108 1107/1107
f 1107/1107 1106/1106 1105/1105
f 1105/1105 1104/1104 1103/1103
f 1103/1103 1102/1102 1101/1101
f 1101/1101 1100/1100 1099/1099
f 1099/1099 1098/1098 1097/1097
f 1097/1097 1096/1096 1095/1095
f 1095/1095 1093/1093 1123/1123
f 1123/1123 1121/1121 1119/1119
f 1119/1119 1117/1117 1115/1115
f 1115/1115 1113/1113 1111/1111
f 1111/1111 1109/1109 1107/1107
f 1107/1107 1105/1105 1103/1103
f 1103/1103 1101/1101 1099/1099
f 1099/1099 1097/1097 1095/1095
f 1095/1095 1123/1123 1119/1119
f 1119/1119 1115/1115 1111/1111
f 1111/1111 1107/1107 1103/1103
f 1103/1103 1099/1099 1095/1095
f 1095/1095 1119/1119 1111/1111
f 1111/1111 1103/1103 1095/1095

